<svg xmlns="http://www.w3.org/2000/svg" width="60" height="60" viewBox="0 0 60 60">
    <g fill="none" fill-rule="evenodd">
        <circle cx="30" cy="30" r="30" fill="#EB1C24"/>
        <g fill="#FFF">
            <path d="M30.67 15a3.092 3.092 0 0 0-3.087 3.088 3.092 3.092 0 0 0 3.088 3.089 3.092 3.092 0 0 0 3.088-3.089A3.092 3.092 0 0 0 30.671 15M18.088 26.9A3.092 3.092 0 0 0 15 29.988a3.092 3.092 0 0 0 3.088 3.088 3.092 3.092 0 0 0 3.089-3.088 3.092 3.092 0 0 0-3.089-3.088M30.67 38.8a3.092 3.092 0 0 0-3.087 3.088 3.092 3.092 0 0 0 3.088 3.088 3.092 3.092 0 0 0 3.088-3.088 3.092 3.092 0 0 0-3.088-3.089M42.57 26.9a3.092 3.092 0 0 0-3.088 3.088 3.092 3.092 0 0 0 3.088 3.088 3.092 3.092 0 0 0 3.089-3.088A3.092 3.092 0 0 0 42.57 26.9M23.857 36.46a3.092 3.092 0 0 0-4.367 0 3.068 3.068 0 0 0-.905 2.184c0 .825.322 1.6.905 2.184a3.078 3.078 0 0 0 2.184.903 3.08 3.08 0 0 0 2.183-.903 3.092 3.092 0 0 0 0-4.368M24.34 19.149a3.068 3.068 0 0 0-2.184-.905c-.824 0-1.6.321-2.183.905a3.092 3.092 0 0 0 0 4.367 3.08 3.08 0 0 0 2.183.903 3.08 3.08 0 0 0 2.184-.903 3.068 3.068 0 0 0 .905-2.184c0-.825-.321-1.6-.905-2.183M41.169 35.977a3.092 3.092 0 0 0-4.368 0 3.092 3.092 0 0 0 0 4.367 3.068 3.068 0 0 0 2.184.905c.825 0 1.6-.321 2.184-.905a3.068 3.068 0 0 0 .904-2.183c0-.825-.32-1.6-.904-2.184M41.169 19.149a3.068 3.068 0 0 0-2.184-.905c-.825 0-1.6.321-2.184.904a3.092 3.092 0 0 0 0 4.368 3.079 3.079 0 0 0 2.184.903 3.08 3.08 0 0 0 2.184-.903 3.068 3.068 0 0 0 .904-2.184c0-.825-.32-1.6-.904-2.183M36.332 31.21h2.607a3.826 3.826 0 0 1-.12-1.955h-2.41a5.76 5.76 0 0 0-1.17-2.795l1.818-1.818a3.84 3.84 0 0 1-1.373-1.39l-1.888 1.887a5.748 5.748 0 0 0-2.408-.874v-2.4a3.845 3.845 0 0 1-1.955-.138v2.626a5.76 5.76 0 0 0-2.009.865l-1.943-1.943a3.872 3.872 0 0 1-1.383 1.38l1.917 1.918a5.757 5.757 0 0 0-1.082 2.682H21.87a3.849 3.849 0 0 1-.119 1.955h3.258c.148.695.42 1.343.794 1.922l-2.215 2.214a3.831 3.831 0 0 1 1.392 1.373l2.144-2.143c.669.52 1.454.897 2.31 1.084v2.627a3.827 3.827 0 0 1 1.954-.138v-2.4a5.757 5.757 0 0 0 2.717-1.086l1.51 1.51a3.84 3.84 0 0 1 1.381-1.383l-1.536-1.536c.414-.61.714-1.3.872-2.044"/>
        </g>
    </g>
</svg>
