<svg xmlns="http://www.w3.org/2000/svg" width="30" height="30" viewBox="0 0 30 30"><g fill="none" fill-rule="evenodd"><path fill="#00B2EC" d="M15 0c8.284 0 15 6.716 15 15 0 8.284-6.716 15-15 15-8.286 0-15-6.716-15-15C0 6.716 6.714 0 15 0"/><path stroke="#FEFEFE" stroke-width="1.08" d="M18.95 8.2a3.633 3.633 0 1 1-7.266 0 3.633 3.633 0 0 1 7.266 0zm-6.358 10.27a3.632 3.632 0 1 1-7.265 0 3.632 3.632 0 0 1 7.265 0z"/><path fill="#FEFEFE" d="M25.308 18.473a3.63 3.63 0 0 1-7.262 0 3.63 3.63 0 1 1 7.262 0"/><path stroke="#FEFEFE" stroke-width="1.08" d="M25.308 18.47a3.632 3.632 0 0 1-7.262 0 3.632 3.632 0 1 1 7.262 0z"/></g></svg>