<svg xmlns="http://www.w3.org/2000/svg" xmlns:xlink="http://www.w3.org/1999/xlink" width="36" height="36" viewBox="0 0 36 36"><defs><path id="b" d="M0 0h456v482H0z"/><filter id="a" width="107.5%" height="107.1%" x="-3.7%" y="-2.7%" filterUnits="objectBoundingBox"><feOffset dy="4" in="SourceAlpha" result="shadowOffsetOuter1"/><feGaussianBlur in="shadowOffsetOuter1" result="shadowBlurOuter1" stdDeviation="5"/><feColorMatrix in="shadowBlurOuter1" values="0 0 0 0 0 0 0 0 0 0 0 0 0 0 0 0 0 0 0.1 0"/></filter><circle id="d" cx="17" cy="17" r="17"/><filter id="c" width="111.8%" height="111.8%" x="-5.9%" y="-2.9%" filterUnits="objectBoundingBox"><feOffset dy="1" in="SourceAlpha" result="shadowOffsetOuter1"/><feGaussianBlur in="shadowOffsetOuter1" result="shadowBlurOuter1" stdDeviation=".5"/><feColorMatrix in="shadowBlurOuter1" values="0 0 0 0 0 0 0 0 0 0 0 0 0 0 0 0 0 0 0.2 0"/></filter><path id="e" d="M19.72 25.25V0H0v25.25h19.72z"/></defs><g fill="none" fill-rule="evenodd"><g transform="translate(-403 -23)"><use fill="#000" filter="url(#a)" xlink:href="#b"/><use fill="#FFF" xlink:href="#b"/></g><g transform="translate(1)"><use fill="#000" filter="url(#c)" xlink:href="#d"/><use fill="#39B54A" xlink:href="#d"/></g><g transform="translate(7.8 4.25)"><mask id="f" fill="#fff"><use xlink:href="#e"/></mask><path fill="#FFF" d="M15.91 19.14a2.302 2.302 0 0 0-2.3-2.3 2.302 2.302 0 0 0-2.3 2.3c0 1.27 1.03 2.3 2.3 2.3 1.268 0 2.3-1.03 2.3-2.3zm.843 0a3.147 3.147 0 0 1-3.144 3.145 3.147 3.147 0 0 1-3.145-3.145 3.14 3.14 0 0 1 2.72-3.102v-2.923c0-.234.19-.42.424-.42.232 0 .422.186.422.42v2.923c1.533.21 2.72 1.514 2.72 3.102zm1.278 0a4.41 4.41 0 0 0-2.386-3.923.844.844 0 0 1-.457-.75v-11.2a1.58 1.58 0 0 0-3.156 0v11.2a.845.845 0 0 1-.454.75 4.41 4.41 0 0 0-2.39 3.923 4.428 4.428 0 0 0 4.423 4.423 4.428 4.428 0 0 0 4.42-4.423zm1.69 0a6.118 6.118 0 0 1-6.11 6.11 6.117 6.117 0 0 1-6.112-6.11 6.088 6.088 0 0 1 2.843-5.162V3.268A3.27 3.27 0 0 1 13.61 0a3.27 3.27 0 0 1 3.267 3.267v10.71a6.09 6.09 0 0 1 2.846 5.163zM6.608 10.142l-.06 1.714a.423.423 0 0 1-.423.406h-.016a.422.422 0 0 1-.407-.438l.078-2.118-.965-1.35-.99 1.337.04 2.115a.423.423 0 0 1-.413.43h-.008a.422.422 0 0 1-.423-.413l-.034-1.714-1.65.465a.422.422 0 0 1-.23-.813l2.04-.575.987-1.332-1.57-.532L.56 8.01a.42.42 0 0 1-.537-.263.422.422 0 0 1 .263-.537l1.623-.556-.947-1.43a.423.423 0 0 1 .704-.466l1.168 1.766 1.56.528V5.405L3.1 3.73a.423.423 0 0 1 .67-.517L4.815 4.57l1.05-1.358a.422.422 0 1 1 .667.517L5.24 5.404V7.06l1.578-.503 1.2-1.745a.42.42 0 1 1 .696.478l-.972 1.414 1.613.583a.42.42 0 1 1-.285.793l-1.994-.72-1.578.504.965 1.353 2.03.61a.42.42 0 1 1-.244.808l-1.644-.493z" mask="url(#f)"/></g></g></svg>