<svg xmlns="http://www.w3.org/2000/svg" xmlns:xlink="http://www.w3.org/1999/xlink" width="60" height="60" viewBox="0 0 60 60">
    <defs>
        <path id="b" d="M0 0h390v291H0z"/>
        <filter id="a" width="116.7%" height="122.3%" x="-8.3%" y="-9.5%" filterUnits="objectBoundingBox">
            <feOffset dy="5" in="SourceAlpha" result="shadowOffsetOuter1"/>
            <feGaussianBlur in="shadowOffsetOuter1" result="shadowBlurOuter1" stdDeviation="10"/>
            <feColorMatrix in="shadowBlurOuter1" values="0 0 0 0 0 0 0 0 0 0 0 0 0 0 0 0 0 0 0.15 0"/>
        </filter>
    </defs>
    <g fill="none" fill-rule="evenodd">
        <g transform="translate(-165 -50)">
            <use fill="#000" filter="url(#a)" xlink:href="#b"/>
            <use fill="#FFF" xlink:href="#b"/>
        </g>
        <g>
            <circle cx="30" cy="30" r="30" fill="#39B54A"/>
            <g fill="#FFF">
                <path d="M16.193 21.46c1.229 2.857 3.302 5.683 6.204 6.901.332.138.708.242 1.094.328.773-1.152 1.66-2.087 2.699-2.853a13.558 13.558 0 0 1 2.791-1.574 7.876 7.876 0 0 0-.87-.528c-1.207-.631-2.515-1.187-3.788-1.784 1.197.325 2.57.445 3.716.863a8.64 8.64 0 0 1 1.988 1.056c1.832-.625 3.747-.925 5.658-1.153-1.549-2.574-4.854-4.64-7.346-5.576-2.601-.976-5.548-1.097-8.443-1.397-1.774-.183-3.703-.846-5.114-1.619-.32-.176-.663.118-.552.473.694 2.219 1.045 4.73 1.963 6.863"/>
                <path d="M46.783 21.122c-3.265 1.774-7.009 1.991-10.676 2.412-1.791.207-3.565.462-5.252.973-.366.11-.732.235-1.09.373a12.85 12.85 0 0 0-3.065 1.656c-.91.67-1.656 1.463-2.284 2.336-1 1.394-1.698 2.999-2.27 4.665a26.605 26.605 0 0 0-1.432 9.44c.037 1.298.058 2.647.38 3.914.072.28.14.635.358.842.283.272.79-.007.676-.404-.821-2.798-.31-6.07.825-8.744 1.304-3.074 3.823-4.903 6.901-6.017a39.154 39.154 0 0 1 2.502-.801c.017-.007.034-.007.051-.007.17 0 .242.249.066.328-1 .452-1.994.907-2.94 1.4-4.63 2.416-6.653 8.04-4.917 8.04.142 0 .307-.037.497-.117 2.678-1.107 5.859-1.118 8.802-1.663 1.036-.19 2.043-.448 2.989-.842 3.754-1.566 6.438-4.63 8.036-8.316 1.19-2.75 1.653-5.997 2.553-8.854.118-.365-.141-.68-.459-.68a.474.474 0 0 0-.251.066"/>
            </g>
        </g>
    </g>
</svg>
