<svg xmlns="http://www.w3.org/2000/svg" xmlns:xlink="http://www.w3.org/1999/xlink" width="60" height="60" viewBox="0 0 60 60">
    <defs>
        <path id="b" d="M0 0h390v291H0z"/>
        <filter id="a" width="116.7%" height="122.3%" x="-8.3%" y="-9.5%" filterUnits="objectBoundingBox">
            <feOffset dy="5" in="SourceAlpha" result="shadowOffsetOuter1"/>
            <feGaussianBlur in="shadowOffsetOuter1" result="shadowBlurOuter1" stdDeviation="10"/>
            <feColorMatrix in="shadowBlurOuter1" values="0 0 0 0 0 0 0 0 0 0 0 0 0 0 0 0 0 0 0.15 0"/>
        </filter>
    </defs>
    <g fill="none" fill-rule="evenodd">
        <g transform="translate(-165 -50)">
            <use fill="#000" filter="url(#a)" xlink:href="#b"/>
            <use fill="#FFF" xlink:href="#b"/>
        </g>
        <g>
            <circle cx="30" cy="30" r="30" fill="#39B54A"/>
            <g fill="#FFF">
                <path d="M25.542 20.653s.325 2.086.438 2.858c.59 3.538 1.506 8.243-3.375 8.94-3.63.523-4.604-2.706-3.469-5.64.359-.914.793-1.798 1.298-2.64l.49.36c-.48.905-1.197 2.238-1.197 3.27 0 3.112 4.219 2.327 5.231 1.058 1.13-1.418-.27-6.772-.649-8.891l-.354-.325c-.253-.22.539-2.547.708-2.826 0 0 .477-.023.399.405-.114.624.824.974 1.298 1.243.068.357-.416 2.272-.53 2.272a.402.402 0 0 1-.217-.11c-.07-.072-.077 0-.09 0M32.35 25.397c2.132-2.392-4.614-7.96-5.283-6.967-.289.421.023 2.248.432 2.891.324.529 2.271 2.44 2.271.717a6.136 6.136 0 0 1 2.58 3.359"/>
                <path d="M26.746 29.343v.58c3.832.286 5.841-.486 7.165-4.237.179 1.242.36 3.352 2.022 3.313 1.006-.026 9.482-.026 9.482-.026l-.026-2.525s-.928-.256-1.298-.649c-.37-.392-1.447-1.7-2.077-2.317-.63-.616-1.084-1.032-1.584-1.236-1.726-.708-2.479.811-3.105 2.06-.039.078.555-.116.993-.077 1.412.123 2.518 1.194 3.388 2.229-2.207 0-6.844 1.016-6.893-1.298-.042-1.99 0-4.621-.324-6.558-.052-.325-.386-1.597-.386-1.597s-.607 1.405-.773 1.778c-1.58 3.524 4.186 6.49-6.558 10.566"/>
                <path d="M26.438 12.44a28.735 28.735 0 0 0-2.963 1.557C3.855 27.7 27.752 56.803 45.249 38.335a15.369 15.369 0 0 0 2.92-5.062c-1.622 7.35-7.768 13.629-15.436 14.327-12.597 1.161-22.245-9.586-19.568-21.85.352-1.29.8-2.551 1.34-3.774 2.545-5.016 6.562-8.07 11.933-9.537"/>
            </g>
        </g>
    </g>
</svg>
