<svg xmlns="http://www.w3.org/2000/svg" xmlns:xlink="http://www.w3.org/1999/xlink" width="16" height="16" viewBox="0 0 16 16">
    <defs>
        <path id="a" d="M14.33 3.352H.006V.005h14.326z"/>
        <path id="c" d="M.016.01h2.485v5.518H.016z"/>
        <path id="e" d="M0 .01h2.485v5.518H0V.01z"/>
        <path id="g" d="M.019.01h2.485v5.518H.019z"/>
    </defs>
    <g fill="none" fill-rule="evenodd">
        <g transform="translate(.83 12.502)">
            <mask id="b" fill="#fff">
                <use xlink:href="#a"/>
            </mask>
            <path fill="#B5B3B3" d="M1.574.005C.594.357.005.805.005 1.29c0 1.138 3.207 2.061 7.163 2.061 3.956 0 7.163-.923 7.163-2.06 0-.488-.588-.935-1.57-1.287a8.305 8.305 0 0 1-1.072.8c.613.159 1.058.333 1.321.486-.71.414-2.739.982-5.842.982-3.103 0-5.131-.569-5.842-.982.263-.153.708-.327 1.32-.486a8.294 8.294 0 0 1-1.072-.8" mask="url(#b)"/>
        </g>
        <path fill="#B5B3B3" d="M0 6.651c0 2.291 1.046 4.347 2.702 5.754.355.301.737.574 1.143.812a8.208 8.208 0 0 0 4.152 1.115c1.52 0 2.942-.408 4.152-1.115a7.99 7.99 0 0 0 1.144-.812c1.656-1.407 2.702-3.463 2.702-5.754H0z"/>
        <g transform="translate(3.214 .023)">
            <mask id="d" fill="#fff">
                <use xlink:href="#c"/>
            </mask>
            <path fill="#B5B3B3" d="M.848.141c-.751.54-1.04 1.263-.674 2.12.203.477 1.268 1.622.812 2.1-.61.64.381 1.596.994.953.607-.637.658-1.393.283-2.163-.183-.374-1.184-1.502-.706-1.845C2.273.791 1.574-.38.847.141" mask="url(#d)"/>
        </g>
        <g transform="translate(6.6 .023)">
            <mask id="f" fill="#fff">
                <use xlink:href="#e"/>
            </mask>
            <path fill="#B5B3B3" d="M.832.141c-.75.54-1.04 1.263-.674 2.12.203.477 1.268 1.622.813 2.1-.61.64.38 1.596.993.953.607-.637.659-1.393.283-2.163-.183-.374-1.184-1.502-.706-1.845C2.257.791 1.558-.38.83.141" mask="url(#f)"/>
        </g>
        <g transform="translate(9.952 .023)">
            <mask id="h" fill="#fff">
                <use xlink:href="#g"/>
            </mask>
            <path fill="#B5B3B3" d="M.85.141C.1.681-.188 1.404.178 2.261c.203.477 1.268 1.622.812 2.1-.61.64.381 1.596.994.953.607-.637.658-1.393.283-2.163-.183-.374-1.184-1.502-.706-1.845C2.276.791 1.577-.38.85.141" mask="url(#h)"/>
        </g>
    </g>
</svg>
