<svg xmlns="http://www.w3.org/2000/svg" width="60" height="60" viewBox="0 0 60 60">
    <g fill="none" fill-rule="evenodd">
        <circle cx="30" cy="30" r="30" fill="#EB1C24"/>
        <path fill="#FFF" d="M33.488 26.395a7.028 7.028 0 0 0-.725-.629l-2.34 2.34c.273.16.532.353.766.587l.118.118a3.845 3.845 0 0 1 0 5.432l-6.39 6.39a3.845 3.845 0 0 1-5.432 0l-.118-.118a3.846 3.846 0 0 1 0-5.431l2.891-2.892a9.918 9.918 0 0 1-.719-3.878l-4.47 4.47c-2.758 2.758-2.758 7.272 0 10.03l.117.118c2.759 2.757 7.272 2.757 10.03 0l6.39-6.39c2.757-2.758 2.757-7.272 0-10.03l-.118-.117zm9.444-9.208l-.119-.119c-2.758-2.757-7.27-2.757-10.029 0l-6.39 6.391c-2.757 2.758-2.757 7.27 0 10.029l.119.118c.229.23.473.437.724.628l2.34-2.34a3.831 3.831 0 0 1-.766-.587l-.118-.118a3.845 3.845 0 0 1 0-5.432l6.39-6.39a3.844 3.844 0 0 1 5.432 0l.118.118a3.845 3.845 0 0 1 0 5.432l-2.891 2.89a9.92 9.92 0 0 1 .719 3.88l4.47-4.471c2.759-2.758 2.759-7.271 0-10.03z"/>
    </g>
</svg>
