<svg xmlns="http://www.w3.org/2000/svg" width="60" height="60" viewBox="0 0 60 60">
    <g fill="none" fill-rule="evenodd">
        <circle cx="30" cy="30" r="30" fill="#EB1C24"/>
        <path fill="#FFF" d="M28.295 35.873c.463.55 1.321.5 1.723-.1l6.064-9.058-1.797-1.205-5.262 7.874-3.13-3.711-1.65 1.395 4.052 4.805zM17 31.976v-12.61l1.266-.019c.025 0 2.847-.061 5.762-1.222 2.988-1.192 4.909-2.563 4.928-2.582l.753-.543.76.543c.018.013 1.945 1.384 4.927 2.582 2.91 1.16 5.731 1.222 5.762 1.222l1.26.019.006 12.61c0 6.33-8.269 13.024-12.715 13.024C25.269 45 17 38.306 17 31.976z"/>
    </g>
</svg>
