<svg xmlns="http://www.w3.org/2000/svg" width="60" height="60" viewBox="0 0 60 60">
    <g fill="none" fill-rule="evenodd">
        <circle cx="30" cy="30" r="30" fill="#EB1C24"/>
        <path fill="#FFF" d="M36.146 35.28h-1.302v-.178c0-.134.008-.267.008-.267h-.017s-.616.552-1.676.552c-1.632 0-3.13-1.221-3.13-3.308 0-1.854 1.4-3.28 3.344-3.28 1.631 0 2.452.846 2.452.846l-.75 1.168s-.65-.588-1.551-.588c-1.337 0-1.881.856-1.881 1.8 0 1.214.838 1.936 1.828 1.936.748 0 1.292-.464 1.292-.464v-.49h-.9v-1.33h2.283v3.603zm-8.207 0l-1.347-2.586h-.641v2.586h-1.56v-6.375h1.56v2.461h.641l1.32-2.46h1.677l-1.722 3.049v.018l1.82 3.307h-1.748zm-.27-14.872A2.333 2.333 0 0 1 30 18.078a2.333 2.333 0 0 1 2.33 2.33 2.333 2.333 0 0 1-1.829 2.274h-1.002a2.332 2.332 0 0 1-1.83-2.274zm17.254 17.896l-4.705-14.543a1.558 1.558 0 0 0-1.483-1.079H33.77a4.375 4.375 0 0 0 .638-2.274A4.414 4.414 0 0 0 30 16a4.414 4.414 0 0 0-4.409 4.408c0 .833.237 1.61.64 2.274h-4.966c-.676 0-1.275.436-1.483 1.079l-4.705 14.543a1.558 1.558 0 0 0 1.482 2.038h26.882a1.558 1.558 0 0 0 1.482-2.038z"/>
    </g>
</svg>
