<svg xmlns="http://www.w3.org/2000/svg" width="23" height="30" viewBox="0 0 23 30">
    <path fill="#000" fill-rule="evenodd" d="M21.357 27.656c0 .254-.188.469-.41.469H2.054c-.223 0-.411-.215-.411-.469V2.344c0-.254.188-.469.41-.469h12.322c.124 0 .263.018.41.05v7.45h6.528c.029.168.044.327.044.469v17.812zm-.97-20.487c.08.091.16.204.238.331h-4.196V2.711c.111.089.21.18.29.272l3.667 4.186zm1.161-1.326l-3.667-4.186C17.082.746 15.505 0 14.375 0H2.054C.924 0 0 1.055 0 2.344v25.312C0 28.946.924 30 2.054 30h18.892C22.076 30 23 28.945 23 27.656V9.844c0-1.29-.653-3.09-1.452-4.001zM7.393 22.5h3.286v-1.875H7.393V22.5zM9.036 15v1.875H6.57v6.563c0 .517.368.937.822.937h3.286c.453 0 .821-.42.821-.937V15H9.036zM6.57 15h2.465v-1.875H6.57V15zm2.465-1.875H11.5V11.25H9.036v1.875zM6.57 11.25h2.465V9.375H6.57v1.875zm2.465-1.875H11.5V7.5H9.036v1.875zM6.57 7.5h2.465V5.625H6.57V7.5zm2.465-1.875H11.5V3.75H9.036v1.875z"/>
</svg>
