<svg xmlns="http://www.w3.org/2000/svg" xmlns:xlink="http://www.w3.org/1999/xlink" width="52" height="97" viewBox="0 0 52 97"><defs><path id="b" d="M0 0h456v482H0z"/><filter id="a" width="107.5%" height="107.1%" x="-3.7%" y="-2.7%" filterUnits="objectBoundingBox"><feOffset dy="4" in="SourceAlpha" result="shadowOffsetOuter1"/><feGaussianBlur in="shadowOffsetOuter1" result="shadowBlurOuter1" stdDeviation="5"/><feColorMatrix in="shadowBlurOuter1" values="0 0 0 0 0 0 0 0 0 0 0 0 0 0 0 0 0 0 0.1 0"/></filter><path id="d" d="M11.134 27.868A19.93 19.93 0 0 0-2.5 22.5c-11.046 0-20 8.954-20 20s8.954 20 20 20c5.11 0 9.774-1.917 13.31-5.07C14.92 56.475 17.985 56 20 56c2.014 0 5.078.476 9.19 1.43A19.925 19.925 0 0 0 42.5 62.5c11.046 0 20-8.954 20-20s-8.954-20-20-20a19.93 19.93 0 0 0-13.634 5.368C25.76 28.623 22.804 29 20 29c-2.804 0-5.76-.377-8.866-1.132z"/><filter id="c" width="121.2%" height="145%" x="-10.6%" y="-22.5%" filterUnits="objectBoundingBox"><feOffset in="SourceAlpha" result="shadowOffsetOuter1"/><feGaussianBlur in="shadowOffsetOuter1" result="shadowBlurOuter1" stdDeviation="3"/><feColorMatrix in="shadowBlurOuter1" values="0 0 0 0 0.368627451 0 0 0 0 0.368627451 0 0 0 0 0.368627451 0 0 0 0.3 0"/></filter><circle id="f" cx="17" cy="17" r="17"/><filter id="e" width="111.8%" height="111.8%" x="-5.9%" y="-2.9%" filterUnits="objectBoundingBox"><feOffset dy="1" in="SourceAlpha" result="shadowOffsetOuter1"/><feGaussianBlur in="shadowOffsetOuter1" result="shadowBlurOuter1" stdDeviation=".5"/><feColorMatrix in="shadowBlurOuter1" values="0 0 0 0 0 0 0 0 0 0 0 0 0 0 0 0 0 0 0.2 0"/></filter><path id="g" d="M19.72 25.25V0H0v25.25h19.72z"/></defs><g fill="none" fill-rule="evenodd"><g transform="translate(-395 -14)"><use fill="#000" filter="url(#a)" xlink:href="#b"/><use fill="#FFF" xlink:href="#b"/></g><g transform="rotate(90 20 48.5)"><use fill="#000" filter="url(#c)" xlink:href="#d"/><use fill="#FFF" xlink:href="#d"/></g><g transform="translate(9 54)"><use fill="#000" filter="url(#e)" xlink:href="#f"/><use fill="#00B2EC" xlink:href="#f"/></g><path fill="#FFF" d="M36.672 75.58l-3.145-1.578 2.734-1.05c.38-.147.556-.538.39-.872-.164-.324-.623-.482-.996-.34l-3.756 1.445-4.38-2.2 4.36-2.202 3.798 1.448c.386.147.832-.02.99-.342.167-.334-.01-.724-.39-.868l-2.774-1.058 3.16-1.597c.176-.088.3-.23.352-.402a.584.584 0 0 0-.076-.5c-.2-.304-.682-.42-1.03-.243l-3.14 1.587.336-2.597a.6.6 0 0 0-.16-.488.778.778 0 0 0-.503-.244c-.422-.044-.792.224-.835.584l-.427 3.567-4.35 2.215v-4.4l3.293-2.153a.623.623 0 0 0 .287-.417.623.623 0 0 0-.146-.507c-.24-.285-.7-.35-1.03-.138L26.83 63.8v-3.19c0-.39-.437-.66-.83-.66-.39 0-.826.27-.826.66v3.17l-2.367-1.55c-.324-.21-.796-.147-1.037.138a.632.632 0 0 0-.15.514c.03.166.13.31.28.408l3.274 2.135v4.418l-4.285-2.167-.457-3.57c-.045-.333-.362-.584-.738-.584a.785.785 0 0 0-.09.005c-.407.04-.703.368-.66.733l.35 2.597-3.215-1.613a.84.84 0 0 0-.374-.087.78.78 0 0 0-.654.332c-.206.312-.082.716.278.9l3.234 1.624-2.77 1.065a.702.702 0 0 0-.4.363.58.58 0 0 0 .013.505c.16.32.604.485.993.34l3.793-1.457 4.3 2.16-4.308 2.177-3.76-1.434c-.374-.14-.832.018-.993.342-.168.334.007.724.39.87l2.736 1.044-3.21 1.62c-.357.184-.48.59-.273.903.134.204.385.33.654.33a.824.824 0 0 0 .376-.09l3.23-1.63-.342 2.634a.602.602 0 0 0 .162.486.776.776 0 0 0 .592.247c.383 0 .705-.252.75-.588l.43-3.602 4.248-2.163v4.39l-2.917 2.135a.606.606 0 0 0-.08.926c.14.152.36.242.59.242a.756.756 0 0 0 .454-.15l1.952-1.435v3.145c0 .39.435.66.826.66.393 0 .83-.27.83-.66v-3.166l1.983 1.458a.8.8 0 0 0 1.03-.09.648.648 0 0 0 .19-.47.588.588 0 0 0-.254-.46l-2.948-2.158v-4.377l4.337 2.193.46 3.604c.045.332.363.582.74.582a.775.775 0 0 0 .584-.247.6.6 0 0 0 .16-.49l-.352-2.63 3.164 1.587a.835.835 0 0 0 .375.087c.27 0 .52-.127.654-.332.206-.314.082-.72-.278-.9"/><g transform="translate(9 9)"><circle cx="17" cy="17" r="17" fill="#EBEBEB"/><g transform="translate(6.8 4.25)"><mask id="h" fill="#fff"><use xlink:href="#g"/></mask><path fill="#FFF" d="M15.91 19.14a2.302 2.302 0 0 0-2.3-2.3 2.302 2.302 0 0 0-2.3 2.3c0 1.27 1.03 2.3 2.3 2.3 1.268 0 2.3-1.03 2.3-2.3zm.843 0a3.147 3.147 0 0 1-3.144 3.145 3.147 3.147 0 0 1-3.145-3.145 3.14 3.14 0 0 1 2.72-3.102v-2.923c0-.234.19-.42.424-.42.232 0 .422.186.422.42v2.923c1.533.21 2.72 1.514 2.72 3.102zm1.278 0a4.41 4.41 0 0 0-2.386-3.923.844.844 0 0 1-.457-.75v-11.2a1.58 1.58 0 0 0-3.156 0v11.2a.845.845 0 0 1-.454.75 4.41 4.41 0 0 0-2.39 3.923 4.428 4.428 0 0 0 4.423 4.423 4.428 4.428 0 0 0 4.42-4.423zm1.69 0a6.118 6.118 0 0 1-6.11 6.11 6.117 6.117 0 0 1-6.112-6.11 6.088 6.088 0 0 1 2.843-5.162V3.268A3.27 3.27 0 0 1 13.61 0a3.27 3.27 0 0 1 3.267 3.267v10.71a6.09 6.09 0 0 1 2.846 5.163zM6.608 10.142l-.06 1.714a.423.423 0 0 1-.423.406h-.016a.422.422 0 0 1-.407-.438l.078-2.118-.965-1.35-.99 1.337.04 2.115a.423.423 0 0 1-.413.43h-.008a.422.422 0 0 1-.423-.413l-.034-1.714-1.65.465a.422.422 0 0 1-.23-.813l2.04-.575.987-1.332-1.57-.532L.56 8.01a.42.42 0 0 1-.537-.263.422.422 0 0 1 .263-.537l1.623-.556-.947-1.43a.423.423 0 0 1 .704-.466l1.168 1.766 1.56.528V5.405L3.1 3.73a.423.423 0 0 1 .67-.517L4.815 4.57l1.05-1.358a.422.422 0 1 1 .667.517L5.24 5.404V7.06l1.578-.503 1.2-1.745a.42.42 0 1 1 .696.478l-.972 1.414 1.613.583a.42.42 0 1 1-.285.793l-1.994-.72-1.578.504.965 1.353 2.03.61a.42.42 0 1 1-.244.808l-1.644-.493z" mask="url(#h)"/></g></g></g></svg>