<svg xmlns="http://www.w3.org/2000/svg" width="30" height="30" viewBox="0 0 30 30"><g fill="none" fill-rule="evenodd"><path fill="#39B54A" d="M15 0c8.285 0 15 6.716 15 15 0 8.284-6.715 15-15 15S0 23.284 0 15C0 6.716 6.716 0 15 0"/><path fill="#FEFEFE" d="M5.5 15.057l-.05-.023V10.06c0-.146-.05-.17-.2-.17h-.69c-.14 0-.2.024-.2.17v7.96c0 .147.06.17.2.17h.69c.15 0 .2-.023.2-.17v-1.567l1.406-1.464 1.53 3.076c.04.078.113.124.25.124h.817c.137 0 .137-.08.1-.124L7.61 14.194l1.68-1.827c.05-.046.027-.137-.062-.137h-.965c-.138 0-.176.034-.227.09l-2.534 2.737zm7.818 2.407c-1.493 0-1.907-.977-1.907-2.19 0-1.204.554-2.283 1.896-2.283.54 0 1.004.114 1.405.284.15.08.19.023.24-.068l.26-.465c.065-.1.04-.18-.073-.237-.565-.284-1.18-.397-1.844-.397-1.844 0-2.975 1.225-2.975 3.167 0 2.008.992 3.04 2.838 3.04.69 0 1.48-.09 2.12-.407.112-.056.125-.136.062-.24l-.25-.475c-.05-.08-.1-.134-.252-.056-.364.172-.952.33-1.518.33zm8.37.17V14.08c0-1.28-.74-1.974-2.41-1.974-.69 0-1.58.09-2.22.328-.14.046-.15.115-.114.193l.15.49c.04.123.113.123.25.077.416-.124 1.155-.225 1.745-.225 1.255 0 1.493.474 1.493 1.19v.25h-1.53c-2.008 0-2.736.976-2.736 2.02 0 1 .54 1.884 2.698 1.884.802 0 1.73-.078 2.484-.385.124-.046.187-.15.187-.296zM20.57 15.26v2.02c-.527.184-1.28.217-1.568.217-.892 0-1.594-.238-1.594-1.067 0-1.09 1.105-1.17 1.707-1.17h1.455zm5.107 2.703l-.062-.443c-.014-.1-.063-.113-.177-.1a5.395 5.395 0 0 1-.45.02c-.34 0-.44-.1-.44-.544V10.06c0-.147-.05-.17-.2-.17h-.703c-.14 0-.2.023-.2.17v7.12c0 .77.3 1.133 1.153 1.133.262 0 .665-.01.954-.135.137-.058.137-.092.125-.216z"/></g></svg>