<svg xmlns="http://www.w3.org/2000/svg" xmlns:xlink="http://www.w3.org/1999/xlink" width="36" height="36" viewBox="0 0 36 36">
    <defs>
        <circle id="b" cx="17" cy="17" r="17"/>
        <filter id="a" width="111.8%" height="111.8%" x="-5.9%" y="-2.9%" filterUnits="objectBoundingBox">
            <feOffset dy="1" in="SourceAlpha" result="shadowOffsetOuter1"/>
            <feGaussianBlur in="shadowOffsetOuter1" result="shadowBlurOuter1" stdDeviation=".5"/>
            <feColorMatrix in="shadowBlurOuter1" values="0 0 0 0 0 0 0 0 0 0 0 0 0 0 0 0 0 0 0.2 0"/>
        </filter>
    </defs>
    <g fill="none" fill-rule="evenodd">
        <g transform="translate(1)">
            <use fill="#000" filter="url(#a)" xlink:href="#b"/>
            <use fill="#00B2EC" xlink:href="#b"/>
        </g>
        <path fill="#FFF" d="M28.672 21.58l-3.145-1.578 2.734-1.051c.38-.146.555-.537.389-.871-.164-.324-.623-.482-.996-.34l-3.756 1.445-4.38-2.199 4.36-2.203 3.798 1.448c.386.146.832-.02.991-.343.166-.334-.01-.724-.39-.868l-2.775-1.058 3.161-1.597c.175-.088.3-.231.351-.402a.584.584 0 0 0-.076-.5c-.2-.304-.682-.419-1.03-.243l-3.14 1.587.336-2.597a.601.601 0 0 0-.16-.488.778.778 0 0 0-.503-.244c-.423-.044-.793.224-.836.584l-.427 3.567-4.35 2.216v-4.4l3.293-2.153a.623.623 0 0 0 .286-.417.623.623 0 0 0-.146-.507c-.24-.285-.7-.35-1.03-.138L18.829 9.8V6.61c0-.389-.437-.66-.83-.66-.39 0-.826.271-.826.66v3.17l-2.367-1.55c-.324-.21-.796-.147-1.037.138a.632.632 0 0 0-.15.514c.029.166.13.311.28.408l3.274 2.135v4.418l-4.285-2.167-.457-3.57c-.045-.333-.362-.584-.738-.584a.785.785 0 0 0-.09.005c-.407.04-.703.368-.66.733l.349 2.597-3.214-1.613a.84.84 0 0 0-.374-.087.78.78 0 0 0-.654.332c-.205.313-.081.717.279.901l3.234 1.624-2.77 1.065a.702.702 0 0 0-.4.364.58.58 0 0 0 .013.505c.159.32.604.485.993.341l3.793-1.458 4.3 2.159-4.309 2.177-3.76-1.434c-.374-.141-.832.018-.993.342-.167.334.008.724.39.87l2.737 1.044-3.209 1.622c-.358.183-.48.588-.274.902.134.204.385.33.654.33a.824.824 0 0 0 .376-.089l3.23-1.632-.342 2.635a.602.602 0 0 0 .161.486.776.776 0 0 0 .592.247c.383 0 .705-.252.749-.588l.431-3.602 4.248-2.163v4.39l-2.917 2.135a.606.606 0 0 0-.081.926c.14.152.36.242.592.242a.756.756 0 0 0 .453-.151l1.953-1.434v3.145c0 .389.435.66.826.66.393 0 .83-.271.83-.66v-3.166l1.983 1.458a.8.8 0 0 0 1.03-.091.648.648 0 0 0 .189-.468.588.588 0 0 0-.254-.462l-2.948-2.157v-4.377l4.337 2.193.46 3.604c.045.332.363.582.74.582a.775.775 0 0 0 .584-.247.601.601 0 0 0 .16-.49l-.351-2.63 3.164 1.588a.835.835 0 0 0 .375.087c.27 0 .52-.127.654-.332.205-.314.081-.719-.279-.901"/>
    </g>
</svg>
