<svg xmlns="http://www.w3.org/2000/svg" width="24" height="30" viewBox="0 0 24 30">
    <path fill="#000" fill-rule="evenodd" d="M18.7 21.5c0 .276-.27.5-.603.5H4.444c-.332 0-.602-.224-.602-.5s.27-.5.602-.5h13.653c.333 0 .603.224.603.5zm0-4c0 .276-.27.5-.603.5H4.444c-.332 0-.602-.224-.602-.5s.27-.5.602-.5h13.653c.333 0 .603.224.603.5zm0-4c0 .276-.27.5-.603.5H4.444c-.332 0-.602-.224-.602-.5s.27-.5.602-.5h13.653c.333 0 .603.224.603.5zM4.444 9h13.653c.333 0 .603.224.603.5s-.27.5-.603.5H4.444c-.332 0-.602-.224-.602-.5s.27-.5.602-.5zM21.47 28.16a.302.302 0 0 1-.307.295H1.914a.302.302 0 0 1-.306-.295V1.84a.3.3 0 0 1 .306-.294h14.557V6.02c0 .426.362.771.805.771h4.193V28.16zM18.08 2.753l2.388 2.494H18.08V2.753zM17.628 0H1.914C.86 0 0 .826 0 1.84v26.32C0 29.175.86 30 1.914 30h19.248c1.056 0 1.915-.825 1.915-1.84V5.689L17.628 0z"/>
</svg>
