<svg xmlns="http://www.w3.org/2000/svg" xmlns:xlink="http://www.w3.org/1999/xlink" width="60" height="60" viewBox="0 0 60 60">
    <defs>
        <path id="b" d="M0 0h390v291H0z"/>
        <filter id="a" width="116.7%" height="122.3%" x="-8.3%" y="-9.5%" filterUnits="objectBoundingBox">
            <feOffset dy="5" in="SourceAlpha" result="shadowOffsetOuter1"/>
            <feGaussianBlur in="shadowOffsetOuter1" result="shadowBlurOuter1" stdDeviation="10"/>
            <feColorMatrix in="shadowBlurOuter1" values="0 0 0 0 0 0 0 0 0 0 0 0 0 0 0 0 0 0 0.15 0"/>
        </filter>
    </defs>
    <g fill="none" fill-rule="evenodd">
        <g transform="translate(-165 -50)">
            <use fill="#000" filter="url(#a)" xlink:href="#b"/>
            <use fill="#FFF" xlink:href="#b"/>
        </g>
        <g>
            <circle cx="30" cy="30" r="30" fill="#39B54A"/>
            <path fill="#FFF" d="M45.506 26.557l-2.964-4.212a.61.61 0 0 0-.498-.259H37.42a.61.61 0 0 0-.61.61v4.211c0 .337.274.61.61.61h7.588a.61.61 0 0 0 .498-.96m6.18 11.472v1.848a.61.61 0 0 1-.61.61h-4.931c-.353-2.42-2.435-4.285-4.95-4.285a5.012 5.012 0 0 0-4.95 4.284h-9.93a5 5 0 0 0-1.685-3.066h9.416V19.998c0-.673.545-1.218 1.218-1.218h5.75c1.62 0 3.133.804 4.039 2.146l3.707 5.49c.543.806.834 1.755.834 2.727v8.277h1.482a.61.61 0 0 1 .61.61m-8.596 3.18a1.895 1.895 0 1 0-3.79 0 1.895 1.895 0 0 0 3.79 0m1.895 0a3.79 3.79 0 1 1-7.58 0 3.79 3.79 0 0 1 7.58 0m-26.883-3.79H9.609a.61.61 0 0 0-.609.61v1.847a.61.61 0 0 0 .61.61h6.806a5 5 0 0 1 1.686-3.067m5.159 3.79a1.895 1.895 0 1 0-3.79 0 1.895 1.895 0 0 0 3.79 0m1.895 0a3.79 3.79 0 1 1-7.58 0 3.79 3.79 0 0 1 7.58 0m-14.658-6.222v-18.16c0-1.01.818-1.828 1.827-1.828h18.152c1.009 0 1.827.818 1.827 1.827V34.99a.61.61 0 0 1-.61.609H11.108a.61.61 0 0 1-.61-.61"/>
        </g>
    </g>
</svg>
