<svg xmlns="http://www.w3.org/2000/svg" width="30" height="30" viewBox="0 0 30 30">
    <path fill="#39B54A" fill-rule="evenodd" d="M24.802 24.505l-2.673-1.337c-.743-.297-1.485-.594-2.228-1.04-.149-.148-.447-.148-.594-.296-.596-.297-.891-.891-.743-1.485v-.149c0-.743 0-1.337.446-1.93.444-.446.444-1.189.742-1.783 0-.148.149-.148.149-.297.149-.297.446-.445.594-.742.297-.595.444-1.337.297-1.931 0-.149 0-.149-.148-.297-.297-.446-.149-.743-.149-1.188.297-1.04.444-2.08.297-3.12 0-1.039-.297-2.078-1.04-2.82-.445-.446-1.04-.743-1.633-.892-.15 0-.15 0-.297-.148-.596-.595-1.338-.892-2.228-1.04-1.337-.149-2.673 0-4.01.594-1.336.594-2.079 1.634-2.376 2.97-.297 1.485-.149 2.822.148 4.159v.297c.149.445.149.742-.148 1.188-.446.89 0 2.376.742 2.97.149 0 .149.149.149.297.297.891.594 1.782 1.188 2.525 0 0 .149.148.149.297v1.782c0 .149-.149.446-.297.594l-1.337.891c-1.04.446-2.228.891-3.267 1.337-.446.148-.891.445-1.337.742-4.752-4.9-5.495-13.217-.297-18.86C10.248 0 19.307-.15 24.652 5.346c5.645 5.643 5.051 14.405.15 19.158m-2.525 1.93c-1.485.892-2.823 1.634-4.455 1.931-4.307.891-8.02-.148-11.436-2.821l-.148-.149c.445-.297.89-.446 1.336-.743.891-.445 1.931-.742 2.822-1.188.743-.297 1.485-.742 2.08-1.485.148-.297.445-.594.445-1.04v-2.524s0-.149-.149-.149c-.742-.594-1.04-1.485-1.188-2.376v-.297c0-.297-.148-.445-.445-.445-.149 0-.297-.149-.297-.149-.297-.297-.446-.743-.446-1.188 0-.149 0-.297.149-.446.148-.148.297-.297.148-.594l-.445-2.673c0-.891.148-1.782.297-2.525.445-1.04 1.188-1.782 2.227-2.079 1.04-.297 2.08-.445 3.268-.297.444.149.89.297 1.186.743 0 .148.15.148.299.148 1.485.149 2.079 1.188 2.227 2.525.149 1.336-.148 2.673-.445 4.01v.148c-.297.297-.149.446 0 .594.297.149.297.446.297.594 0 .297-.15.446-.15.743-.147.297-.296.446-.593.446a.318.318 0 0 0-.297.297c-.148.89-.297 1.633-.742 2.376a.32.32 0 0 1-.297.297c-.299.148-.299.445-.299.742v1.931c0 .891.447 1.485 1.041 1.93.743.595 1.485.892 2.377 1.189.89.445 1.78.742 2.673 1.188.148 0 .297.149.445.297-.445.297-.89.743-1.485 1.04M15 0C6.683 0 0 6.683 0 15s6.683 15 15 15 15-6.683 15-15S23.317 0 15 0"/>
</svg>
