<svg xmlns="http://www.w3.org/2000/svg" xmlns:xlink="http://www.w3.org/1999/xlink" width="105" height="53" viewBox="0 0 105 53">
    <defs>
        <path id="a" d="M0 52.938V.112h105v52.826z"/>
    </defs>
    <g fill="none" fill-rule="evenodd">
        <path fill="#FFF" d="M-44-18H980v90H-44z"/>
        <g transform="translate(0 .133)">
            <mask id="b" fill="#fff">
                <use xlink:href="#a"/>
            </mask>
            <path fill="#EB1C24" d="M76.723 7.168l-44.801-.036c-12.895 0-17.381-3.458-18.964-5.866-.855-1.3-2.115-1.506-3.285-.597C6.1 3.444 0 9.58 0 20.005c0 17.931 13.945 25.362 28.198 25.362l44.801.036c12.895 0 17.381 3.457 18.964 5.866.855 1.3 2.116 1.506 3.286.597 3.572-2.776 9.672-8.91 9.672-19.336 0-17.932-13.944-25.362-28.198-25.362" mask="url(#b)"/>
        </g>
        <path fill="#FEFEFE" d="M25.548 32.033V20.567c0-.406.12-.727.362-.963.241-.236.566-.353.975-.353h6.204c.362 0 .658.113.89.339.231.225.347.515.347.869s-.116.644-.347.87c-.232.225-.528.338-.89.338h-4.866v3.42h3.812c.362 0 .659.113.89.339.232.226.347.515.347.869s-.115.644-.347.87c-.231.226-.528.339-.89.339h-3.812v3.419h5.067c.362 0 .659.113.89.339.231.226.347.515.347.869s-.116.644-.347.87c-.231.226-.528.339-.89.339h-6.405c-.409 0-.734-.118-.975-.354-.242-.236-.362-.553-.362-.953M22.78 19.613c-.239-.236-.566-.354-.981-.354h-7.313c-.409 0-.734.118-.975.354-.242.235-.362.553-.362.953v11.526c0 .4.12.718.362.954.241.236.566.353.975.353.41 0 .735-.117.976-.353s.362-.554.362-.954V21.667h4.637v10.425c0 .4.119.718.357.954s.565.353.98.353c.416 0 .743-.117.981-.353s.357-.554.357-.954V20.566c0-.4-.119-.718-.357-.953M35.748 21.328c-.231-.225-.347-.515-.347-.87 0-.353.116-.643.347-.868.231-.227.528-.34.89-.34h7.826c.362 0 .658.113.89.34.23.225.347.515.347.869s-.116.644-.347.87c-.232.225-.528.338-.89.338h-2.575v10.427c0 .4-.12.717-.357.953-.238.236-.565.354-.981.354-.416 0-.743-.118-.98-.354-.239-.236-.358-.553-.358-.953V21.667h-2.575c-.362 0-.659-.113-.89-.339M49.532 26.502h1.85c.779 0 1.386-.213 1.821-.64.436-.425.655-1.018.655-1.778s-.219-1.352-.655-1.778c-.435-.425-1.042-.639-1.82-.639h-1.85v4.835zm-2.675 5.56V20.567c0-.406.12-.727.362-.963.241-.236.566-.353.976-.353h3.188c1.529 0 2.788.463 3.777 1.39.989.926 1.483 2.075 1.483 3.443 0 1.37-.494 2.516-1.483 3.44-.99.923-2.248 1.385-3.777 1.385h-1.85v3.153c0 .4-.121.717-.363.953-.241.236-.567.354-.975.354-.41 0-.735-.118-.976-.354-.242-.236-.362-.553-.362-.953zM68.82 32.131c0-.315.15-.717.453-1.208l3.148-4.824-2.847-4.432c-.301-.49-.452-.894-.452-1.208 0-.354.134-.66.402-.919.268-.258.584-.388.945-.388.282 0 .53.072.745.216.214.144.375.308.483.491l2.333 3.822h.08l2.324-3.822c.107-.183.27-.347.488-.49.218-.145.467-.217.749-.217.362 0 .676.13.94.388.265.26.398.565.398.919 0 .314-.151.717-.453 1.208L75.72 26.1l3.148 4.824c.302.49.453.893.453 1.208 0 .354-.133.66-.397.919a1.302 1.302 0 0 1-.941.388c-.282 0-.531-.07-.75-.211a1.48 1.48 0 0 1-.487-.487l-2.635-4.234h-.08l-2.636 4.234c-.107.184-.27.346-.488.487-.218.14-.468.21-.75.21a1.3 1.3 0 0 1-.94-.387 1.24 1.24 0 0 1-.397-.919M84.404 27.66h3.098l-1.488-5.139h-.121l-1.489 5.139zm-4.039 4.41c0-.209.07-.543.211-1.001l3.416-10.453c.14-.426.38-.768.72-1.027.338-.259.752-.388 1.241-.388.49 0 .902.13 1.237.388.336.259.574.601.715 1.027l3.52 10.485c.134.439.202.773.202 1.002 0 .354-.133.66-.398.919a1.3 1.3 0 0 1-.94.388c-.684 0-1.164-.436-1.439-1.307l-.634-1.928H83.69l-.539 1.896c-.275.871-.754 1.307-1.438 1.307-.363 0-.678-.13-.946-.388a1.233 1.233 0 0 1-.402-.92zM92.944 20.598c0 .851-.565 1.419-1.416 1.419-.847 0-1.416-.568-1.416-1.419 0-.852.569-1.419 1.416-1.419.851 0 1.416.567 1.416 1.42zm-2.574 0c0 .698.464 1.167 1.158 1.167.698 0 1.162-.47 1.162-1.167 0-.698-.464-1.167-1.162-1.167-.694 0-1.158.47-1.158 1.167zm1.238-.718c.316 0 .493.162.493.426 0 .193-.125.316-.279.363-.031.011-.031.02-.003.035.104.063.16.138.201.24l.142.316c.016.032 0 .051-.033.051h-.19c-.024 0-.04-.011-.052-.035l-.096-.233c-.081-.177-.166-.264-.392-.264h-.13v.489c0 .028-.015.043-.044.043h-.177c-.028 0-.044-.015-.044-.043v-1.344c0-.028.016-.044.044-.044h.56zm-.338.666h.25c.202 0 .327-.074.327-.22 0-.138-.1-.197-.239-.197h-.338v.417zM67.984 20.413a1.214 1.214 0 0 0-.464-.855 1.271 1.271 0 0 0-.944-.295c-.355.03-.847.216-1.176.925l-2.625 5.8-2.818-5.803c-.328-.706-.82-.891-1.175-.922-.35-.03-.668.068-.943.294a1.214 1.214 0 0 0-.465.856c-.029.316.055.674.249 1.063l3.718 7.482-.418.943c-.13.309-.29.535-.474.673-.149.112-.37.175-.636.185l-.638-.02c-.793.002-1.168.364-1.343.667-.175.305-.214.64-.11.97.317 1.018 1.745 1.018 2.214 1.018 1.094 0 1.915-.49 2.227-.778a4.865 4.865 0 0 0 1.154-1.65l4.42-9.49c.193-.39.276-.747.247-1.063"/>
    </g>
</svg>
