<svg xmlns="http://www.w3.org/2000/svg" xmlns:xlink="http://www.w3.org/1999/xlink" width="14" height="16" viewBox="0 0 14 16">
    <defs>
        <path id="a" d="M0 15.788h13.97V0H0z"/>
    </defs>
    <g fill="none" fill-rule="evenodd">
        <mask id="b" fill="#fff">
            <use xlink:href="#a"/>
        </mask>
        <path fill="#B5B3B3" d="M9.795 1.13l.4-.536c.5-.67 1.43-.793 2.073-.268l1.166.953c.64.523.755 1.495.253 2.167l-.482.644a7.498 7.498 0 0 0-3.41-2.96zm-9 2.96l-.482-.644c-.501-.67-.39-1.643.253-2.167L1.732.326a1.435 1.435 0 0 1 2.072.268l.227.303.173.232A7.496 7.496 0 0 0 .794 4.09zM7 8.271V3.646h.735V8.27h.003v.776h-.003v.004H7v-.004H4.046v-.776H7zm3.17 6.117L11.718 16l.517-.538-1.428-1.487c1.716-1.257 2.839-3.34 2.839-5.697C13.646 4.44 10.67 1.33 7 1.33S.354 4.44.354 8.28c0 2.331 1.099 4.396 2.785 5.656l-1.465 1.527.516.538 1.581-1.646a6.395 6.395 0 0 0 6.398.034z" mask="url(#b)"/>
    </g>
</svg>
