<?xml version="1.0" encoding="UTF-8"?><!DOCTYPE svg PUBLIC "-//W3C//DTD SVG 1.1//EN" "http://www.w3.org/Graphics/SVG/1.1/DTD/svg11.dtd"><svg xmlns="http://www.w3.org/2000/svg" xmlns:xlink="http://www.w3.org/1999/xlink"><defs><path id="b" d="M0 0h456v482H0z"/><filter id="a" width="107.5%" height="107.1%" x="-3.7%" y="-2.7%" filterUnits="objectBoundingBox"><feOffset dy="4" in="SourceAlpha" result="shadowOffsetOuter1"/><feGaussianBlur in="shadowOffsetOuter1" result="shadowBlurOuter1" stdDeviation="5"/><feColorMatrix in="shadowBlurOuter1" values="0 0 0 0 0 0 0 0 0 0 0 0 0 0 0 0 0 0 0.1 0"/></filter><path id="d" d="M11.134 27.868A19.93 19.93 0 0 0-2.5 22.5c-11.046 0-20 8.954-20 20s8.954 20 20 20c5.11 0 9.774-1.917 13.31-5.07C14.92 56.475 17.985 56 20 56c2.014 0 5.078.476 9.19 1.43A19.925 19.925 0 0 0 42.5 62.5c11.046 0 20-8.954 20-20s-8.954-20-20-20a19.93 19.93 0 0 0-13.634 5.368C25.76 28.623 22.804 29 20 29c-2.804 0-5.76-.377-8.866-1.132z"/><filter id="c" width="121.2%" height="145%" x="-10.6%" y="-22.5%" filterUnits="objectBoundingBox"><feOffset in="SourceAlpha" result="shadowOffsetOuter1"/><feGaussianBlur in="shadowOffsetOuter1" result="shadowBlurOuter1" stdDeviation="3"/><feColorMatrix in="shadowBlurOuter1" values="0 0 0 0 0.368627451 0 0 0 0 0.368627451 0 0 0 0 0.368627451 0 0 0 0.3 0"/></filter><circle id="f" cx="17" cy="17" r="17"/><filter id="e" width="111.8%" height="111.8%" x="-5.9%" y="-2.9%" filterUnits="objectBoundingBox"><feOffset dy="1" in="SourceAlpha" result="shadowOffsetOuter1"/><feGaussianBlur in="shadowOffsetOuter1" result="shadowBlurOuter1" stdDeviation=".5"/><feColorMatrix in="shadowBlurOuter1" values="0 0 0 0 0 0 0 0 0 0 0 0 0 0 0 0 0 0 0.2 0"/></filter><path id="g" d="M19.72 25.25V0H0v25.25h19.72z"/><circle id="b" cx="17" cy="17" r="17"/><filter id="a" width="111.8%" height="111.8%" x="-5.9%" y="-2.9%" filterUnits="objectBoundingBox"><feOffset dy="1" in="SourceAlpha" result="shadowOffsetOuter1"/><feGaussianBlur in="shadowOffsetOuter1" result="shadowBlurOuter1" stdDeviation=".5"/><feColorMatrix in="shadowBlurOuter1" values="0 0 0 0 0 0 0 0 0 0 0 0 0 0 0 0 0 0 0.2 0"/></filter><path id="b" d="M0 0h456v482H0z"/><filter id="a" width="107.5%" height="107.1%" x="-3.7%" y="-2.7%" filterUnits="objectBoundingBox"><feOffset dy="4" in="SourceAlpha" result="shadowOffsetOuter1"/><feGaussianBlur in="shadowOffsetOuter1" result="shadowBlurOuter1" stdDeviation="5"/><feColorMatrix in="shadowBlurOuter1" values="0 0 0 0 0 0 0 0 0 0 0 0 0 0 0 0 0 0 0.1 0"/></filter><circle id="d" cx="17" cy="17" r="17"/><filter id="c" width="111.8%" height="111.8%" x="-5.9%" y="-2.9%" filterUnits="objectBoundingBox"><feOffset dy="1" in="SourceAlpha" result="shadowOffsetOuter1"/><feGaussianBlur in="shadowOffsetOuter1" result="shadowBlurOuter1" stdDeviation=".5"/><feColorMatrix in="shadowBlurOuter1" values="0 0 0 0 0 0 0 0 0 0 0 0 0 0 0 0 0 0 0.2 0"/></filter><path id="e" d="M19.72 25.25V0H0v25.25h19.72z"/><path id="b" d="M0 0h390v291H0z"/><filter id="a" width="116.7%" height="122.3%" x="-8.3%" y="-9.5%" filterUnits="objectBoundingBox"><feOffset dy="5" in="SourceAlpha" result="shadowOffsetOuter1"/><feGaussianBlur in="shadowOffsetOuter1" result="shadowBlurOuter1" stdDeviation="10"/><feColorMatrix in="shadowBlurOuter1" values="0 0 0 0 0 0 0 0 0 0 0 0 0 0 0 0 0 0 0.15 0"/></filter><path id="b" d="M0 0h390v291H0z"/><filter id="a" width="116.7%" height="122.3%" x="-8.3%" y="-9.5%" filterUnits="objectBoundingBox"><feOffset dy="5" in="SourceAlpha" result="shadowOffsetOuter1"/><feGaussianBlur in="shadowOffsetOuter1" result="shadowBlurOuter1" stdDeviation="10"/><feColorMatrix in="shadowBlurOuter1" values="0 0 0 0 0 0 0 0 0 0 0 0 0 0 0 0 0 0 0.15 0"/></filter><path id="b" d="M0 0h390v291H0z"/><filter id="a" width="116.7%" height="122.3%" x="-8.3%" y="-9.5%" filterUnits="objectBoundingBox"><feOffset dy="5" in="SourceAlpha" result="shadowOffsetOuter1"/><feGaussianBlur in="shadowOffsetOuter1" result="shadowBlurOuter1" stdDeviation="10"/><feColorMatrix in="shadowBlurOuter1" values="0 0 0 0 0 0 0 0 0 0 0 0 0 0 0 0 0 0 0.15 0"/></filter><path id="b" d="M0 0h390v291H0z"/><filter id="a" width="116.7%" height="122.3%" x="-8.3%" y="-9.5%" filterUnits="objectBoundingBox"><feOffset dy="5" in="SourceAlpha" result="shadowOffsetOuter1"/><feGaussianBlur in="shadowOffsetOuter1" result="shadowBlurOuter1" stdDeviation="10"/><feColorMatrix in="shadowBlurOuter1" values="0 0 0 0 0 0 0 0 0 0 0 0 0 0 0 0 0 0 0.15 0"/></filter><path id="b" d="M0 0h390v291H0z"/><filter id="a" width="116.7%" height="122.3%" x="-8.3%" y="-9.5%" filterUnits="objectBoundingBox"><feOffset dy="5" in="SourceAlpha" result="shadowOffsetOuter1"/><feGaussianBlur in="shadowOffsetOuter1" result="shadowBlurOuter1" stdDeviation="10"/><feColorMatrix in="shadowBlurOuter1" values="0 0 0 0 0 0 0 0 0 0 0 0 0 0 0 0 0 0 0.15 0"/></filter><path id="b" d="M0 0h456v482H0z"/><filter id="a" width="107.5%" height="107.1%" x="-3.7%" y="-2.7%" filterUnits="objectBoundingBox"><feOffset dy="4" in="SourceAlpha" result="shadowOffsetOuter1"/><feGaussianBlur in="shadowOffsetOuter1" result="shadowBlurOuter1" stdDeviation="5"/><feColorMatrix in="shadowBlurOuter1" values="0 0 0 0 0 0 0 0 0 0 0 0 0 0 0 0 0 0 0.1 0"/></filter><path id="a" d="M0 52.938V.112h105v52.826z"/><path id="a" d="M0 15.788h13.97V0H0z"/><path id="a" d="M14.33 3.352H.006V.005h14.326z"/><path id="c" d="M.016.01h2.485v5.518H.016z"/><path id="e" d="M0 .01h2.485v5.518H0V.01z"/><path id="g" d="M.019.01h2.485v5.518H.019z"/><path id="b" d="M0 0h456v482H0z"/><filter id="a" width="107.5%" height="107.1%" x="-3.7%" y="-2.7%" filterUnits="objectBoundingBox"><feOffset dy="4" in="SourceAlpha" result="shadowOffsetOuter1"/><feGaussianBlur in="shadowOffsetOuter1" result="shadowBlurOuter1" stdDeviation="5"/><feColorMatrix in="shadowBlurOuter1" values="0 0 0 0 0 0 0 0 0 0 0 0 0 0 0 0 0 0 0.1 0"/></filter><path id="d" d="M11.134 27.868A19.93 19.93 0 0 0-2.5 22.5c-11.046 0-20 8.954-20 20s8.954 20 20 20c5.11 0 9.774-1.917 13.31-5.07C14.92 56.475 17.985 56 20 56c2.014 0 5.078.476 9.19 1.43A19.925 19.925 0 0 0 42.5 62.5c11.046 0 20-8.954 20-20s-8.954-20-20-20a19.93 19.93 0 0 0-13.634 5.368C25.76 28.623 22.804 29 20 29c-2.804 0-5.76-.377-8.866-1.132z"/><filter id="c" width="121.2%" height="145%" x="-10.6%" y="-22.5%" filterUnits="objectBoundingBox"><feOffset in="SourceAlpha" result="shadowOffsetOuter1"/><feGaussianBlur in="shadowOffsetOuter1" result="shadowBlurOuter1" stdDeviation="3"/><feColorMatrix in="shadowBlurOuter1" values="0 0 0 0 0.368627451 0 0 0 0 0.368627451 0 0 0 0 0.368627451 0 0 0 0.3 0"/></filter><circle id="f" cx="17" cy="17" r="17"/><filter id="e" width="111.8%" height="111.8%" x="-5.9%" y="-2.9%" filterUnits="objectBoundingBox"><feOffset dy="1" in="SourceAlpha" result="shadowOffsetOuter1"/><feGaussianBlur in="shadowOffsetOuter1" result="shadowBlurOuter1" stdDeviation=".5"/><feColorMatrix in="shadowBlurOuter1" values="0 0 0 0 0 0 0 0 0 0 0 0 0 0 0 0 0 0 0.2 0"/></filter><path id="g" d="M19.72 25.25V0H0v25.25h19.72z"/></defs><symbol id="arhive" viewBox="0 0 23 30"><path fill-rule="evenodd" d="M21.357 27.656c0 .254-.188.469-.41.469H2.054c-.223 0-.411-.215-.411-.469V2.344c0-.254.188-.469.41-.469h12.322c.124 0 .263.018.41.05v7.45h6.528c.029.168.044.327.044.469v17.812zm-.97-20.487c.08.091.16.204.238.331h-4.196V2.711c.111.089.21.18.29.272l3.667 4.186zm1.161-1.326l-3.667-4.186C17.082.746 15.505 0 14.375 0H2.054C.924 0 0 1.055 0 2.344v25.312C0 28.946.924 30 2.054 30h18.892C22.076 30 23 28.945 23 27.656V9.844c0-1.29-.653-3.09-1.452-4.001zM7.393 22.5h3.286v-1.875H7.393V22.5zM9.036 15v1.875H6.57v6.563c0 .517.368.937.822.937h3.286c.453 0 .821-.42.821-.937V15H9.036zM6.57 15h2.465v-1.875H6.57V15zm2.465-1.875H11.5V11.25H9.036v1.875zM6.57 11.25h2.465V9.375H6.57v1.875zm2.465-1.875H11.5V7.5H9.036v1.875zM6.57 7.5h2.465V5.625H6.57V7.5zm2.465-1.875H11.5V3.75H9.036v1.875z"/></symbol><symbol id="arrow-red" viewBox="0 0 23 12"><path fill="#EB1C24" fill-rule="evenodd" d="M11.5 10.116L2.055.67a.642.642 0 0 0-.908.908l9.75 9.75c.163.163.393.22.603.17.21.05.44-.007.603-.17l9.75-9.75a.642.642 0 0 0-.908-.908L11.5 10.116z"/></symbol><symbol id="arrow" viewBox="0 0 23 12"><path fill="#FFF" fill-rule="evenodd" d="M11.5 10.116L2.055.67a.642.642 0 0 0-.908.908l9.75 9.75c.163.163.393.22.603.17.21.05.44-.007.603-.17l9.75-9.75a.642.642 0 0 0-.908-.908L11.5 10.116z"/></symbol><symbol id="btn" viewBox="0 0 19 19"><title>BTN</title><g fill="none" fill-rule="evenodd"><path fill="#F9F9F9" opacity=".1" d="M-226-107h1350v719H-226z"/><path d="M9.443 0a9.443 9.443 0 1 1 0 18.887A9.443 9.443 0 0 1 9.443 0z" fill="#EB1C24"/><path d="M12.5 9.5L8.13 5.122 6.963 6.287l3.168 3.168-3.168 3.168 1.165 1.165L12.5 9.5z" fill="#FFF"/></g></symbol><symbol id="catalog" viewBox="0 0 24 30"><path fill-rule="evenodd" d="M18.7 21.5c0 .276-.27.5-.603.5H4.444c-.332 0-.602-.224-.602-.5s.27-.5.602-.5h13.653c.333 0 .603.224.603.5zm0-4c0 .276-.27.5-.603.5H4.444c-.332 0-.602-.224-.602-.5s.27-.5.602-.5h13.653c.333 0 .603.224.603.5zm0-4c0 .276-.27.5-.603.5H4.444c-.332 0-.602-.224-.602-.5s.27-.5.602-.5h13.653c.333 0 .603.224.603.5zM4.444 9h13.653c.333 0 .603.224.603.5s-.27.5-.603.5H4.444c-.332 0-.602-.224-.602-.5s.27-.5.602-.5zM21.47 28.16a.302.302 0 0 1-.307.295H1.914a.302.302 0 0 1-.306-.295V1.84a.3.3 0 0 1 .306-.294h14.557V6.02c0 .426.362.771.805.771h4.193V28.16zM18.08 2.753l2.388 2.494H18.08V2.753zM17.628 0H1.914C.86 0 0 .826 0 1.84v26.32C0 29.175.86 30 1.914 30h19.248c1.056 0 1.915-.825 1.915-1.84V5.689L17.628 0z"/></symbol><symbol id="close-file" viewBox="0 0 11 11"><path fill="#797979" fill-rule="evenodd" d="M10.711.149a.508.508 0 0 0-.719 0L5.43 4.712.867.149A.508.508 0 1 0 .15.868L4.71 5.43.15 9.993a.508.508 0 1 0 .718.719L5.43 6.149l4.562 4.563a.506.506 0 0 0 .719 0 .508.508 0 0 0 0-.719L6.149 5.431 10.71.868a.508.508 0 0 0 0-.72"/></symbol><symbol id="combined-shape-c" viewBox="0 0 11 11"><g fill="none" fill-rule="evenodd"><path fill="#B5B3B3" d="M-140-12H21a3 3 0 0 1 3 3v29a3 3 0 0 1-3 3h-161a3 3 0 0 1-3-3V-9a3 3 0 0 1 3-3z"/><path fill="#FFF" d="M6.188 5.5L11 .687 10.312 0 5.5 4.813.687 0 0 .688 4.813 5.5 0 10.313.688 11 5.5 6.187 10.313 11l.687-.688L6.187 5.5z"/></g></symbol><symbol id="combined-shape-close" viewBox="0 0 26 26"><g fill="none" fill-rule="evenodd"><path fill="#FFF" d="M-424-37H56V63h-480z"/><path fill="#EB1C24" d="M10.58 13L.502 23.08a1.71 1.71 0 1 0 2.42 2.419L13 15.419 23.08 25.5a1.71 1.71 0 1 0 2.42-2.42h-.001L15.419 13 25.5 2.92A1.71 1.71 0 1 0 23.079.5v.001L13 10.581 2.92.5A1.71 1.71 0 1 0 .501 2.92L10.581 13z"/></g></symbol><symbol id="combined-shape-copy" viewBox="0 0 11 11"><path fill="#5E5E5E" fill-rule="evenodd" d="M6.188 5.5L11 .687 10.312 0 5.5 4.813.687 0 0 .688 4.813 5.5 0 10.313.688 11 5.5 6.187 10.313 11l.687-.688L6.187 5.5z"/></symbol><symbol id="combined-shape" viewBox="0 0 40 21"><path fill="#EB1C24" fill-rule="evenodd" d="M1.5 0h37a1.5 1.5 0 0 1 0 3h-37a1.5 1.5 0 0 1 0-3zm0 9h37a1.5 1.5 0 0 1 0 3h-37a1.5 1.5 0 0 1 0-3zm0 9h37a1.5 1.5 0 0 1 0 3h-37a1.5 1.5 0 0 1 0-3z"/></symbol><symbol id="group" viewBox="0 0 52 97"><g fill="none" fill-rule="evenodd"><g transform="translate(-395 -14)"><use fill="#000" filter="url(#a)" xlink:href="#b"/><use fill="#FFF" xlink:href="#b"/></g><g transform="rotate(90 20 48.5)"><use fill="#000" filter="url(#c)" xlink:href="#d"/><use fill="#FFF" xlink:href="#d"/></g><g transform="translate(9 54)"><use fill="#000" filter="url(#e)" xlink:href="#f"/><use fill="#00B2EC" xlink:href="#f"/></g><path fill="#FFF" d="M36.672 75.58l-3.145-1.578 2.734-1.05c.38-.147.556-.538.39-.872-.164-.324-.623-.482-.996-.34l-3.756 1.445-4.38-2.2 4.36-2.202 3.798 1.448c.386.147.832-.02.99-.342.167-.334-.01-.724-.39-.868l-2.774-1.058 3.16-1.597c.176-.088.3-.23.352-.402a.584.584 0 0 0-.076-.5c-.2-.304-.682-.42-1.03-.243l-3.14 1.587.336-2.597a.6.6 0 0 0-.16-.488.778.778 0 0 0-.503-.244c-.422-.044-.792.224-.835.584l-.427 3.567-4.35 2.215v-4.4l3.293-2.153a.623.623 0 0 0 .287-.417.623.623 0 0 0-.146-.507c-.24-.285-.7-.35-1.03-.138L26.83 63.8v-3.19c0-.39-.437-.66-.83-.66-.39 0-.826.27-.826.66v3.17l-2.367-1.55c-.324-.21-.796-.147-1.037.138a.632.632 0 0 0-.15.514c.03.166.13.31.28.408l3.274 2.135v4.418l-4.285-2.167-.457-3.57c-.045-.333-.362-.584-.738-.584a.785.785 0 0 0-.09.005c-.407.04-.703.368-.66.733l.35 2.597-3.215-1.613a.84.84 0 0 0-.374-.087.78.78 0 0 0-.654.332c-.206.312-.082.716.278.9l3.234 1.624-2.77 1.065a.702.702 0 0 0-.4.363.58.58 0 0 0 .013.505c.16.32.604.485.993.34l3.793-1.457 4.3 2.16-4.308 2.177-3.76-1.434c-.374-.14-.832.018-.993.342-.168.334.007.724.39.87l2.736 1.044-3.21 1.62c-.357.184-.48.59-.273.903.134.204.385.33.654.33a.824.824 0 0 0 .376-.09l3.23-1.63-.342 2.634a.602.602 0 0 0 .162.486.776.776 0 0 0 .592.247c.383 0 .705-.252.75-.588l.43-3.602 4.248-2.163v4.39l-2.917 2.135a.606.606 0 0 0-.08.926c.14.152.36.242.59.242a.756.756 0 0 0 .454-.15l1.952-1.435v3.145c0 .39.435.66.826.66.393 0 .83-.27.83-.66v-3.166l1.983 1.458a.8.8 0 0 0 1.03-.09.648.648 0 0 0 .19-.47.588.588 0 0 0-.254-.46l-2.948-2.158v-4.377l4.337 2.193.46 3.604c.045.332.363.582.74.582a.775.775 0 0 0 .584-.247.6.6 0 0 0 .16-.49l-.352-2.63 3.164 1.587a.835.835 0 0 0 .375.087.78.78 0 0 0 .654-.332c.206-.314.082-.72-.278-.9"/><g transform="translate(9 9)"><circle cx="17" cy="17" r="17" fill="#EBEBEB"/><g transform="translate(6.8 4.25)"><mask id="h" fill="#fff"><use xlink:href="#g"/></mask><path fill="#FFF" d="M15.91 19.14a2.302 2.302 0 0 0-2.3-2.3 2.302 2.302 0 0 0-2.3 2.3 2.3 2.3 0 0 0 4.6 0zm.843 0a3.147 3.147 0 0 1-3.144 3.145 3.147 3.147 0 0 1-3.145-3.145 3.14 3.14 0 0 1 2.72-3.102v-2.923c0-.234.19-.42.424-.42a.42.42 0 0 1 .422.42v2.923a3.14 3.14 0 0 1 2.72 3.102zm1.278 0a4.41 4.41 0 0 0-2.386-3.923.844.844 0 0 1-.457-.75v-11.2a1.58 1.58 0 0 0-3.156 0v11.2a.845.845 0 0 1-.454.75 4.41 4.41 0 0 0-2.39 3.923 4.428 4.428 0 0 0 4.423 4.423 4.428 4.428 0 0 0 4.42-4.423zm1.69 0a6.118 6.118 0 0 1-6.11 6.11 6.117 6.117 0 0 1-6.112-6.11 6.088 6.088 0 0 1 2.843-5.162V3.268A3.27 3.27 0 0 1 13.61 0a3.27 3.27 0 0 1 3.267 3.267v10.71a6.09 6.09 0 0 1 2.846 5.163zM6.608 10.142l-.06 1.714a.423.423 0 0 1-.423.406h-.016a.422.422 0 0 1-.407-.438l.078-2.118-.965-1.35-.99 1.337.04 2.115a.423.423 0 0 1-.413.43h-.008a.422.422 0 0 1-.423-.413l-.034-1.714-1.65.465a.422.422 0 0 1-.23-.813l2.04-.575.987-1.332-1.57-.532L.56 8.01a.42.42 0 0 1-.537-.263.422.422 0 0 1 .263-.537l1.623-.556-.947-1.43a.423.423 0 0 1 .704-.466l1.168 1.766 1.56.528V5.405L3.1 3.73a.423.423 0 0 1 .67-.517L4.815 4.57l1.05-1.358a.422.422 0 1 1 .667.517L5.24 5.404V7.06l1.578-.503 1.2-1.745a.42.42 0 1 1 .696.478l-.972 1.414 1.613.583a.42.42 0 1 1-.285.793l-1.994-.72-1.578.504.965 1.353 2.03.61a.42.42 0 1 1-.244.808l-1.644-.493z" mask="url(#h)"/></g></g></g></symbol><symbol id="icon-blue-1" viewBox="0 0 30 30"><g fill="none" fill-rule="evenodd"><path fill="#00B2EC" d="M15 0c8.285 0 15 6.716 15 15 0 8.284-6.715 15-15 15S0 23.284 0 15C0 6.716 6.716 0 15 0"/><path fill="#FEFEFE" d="M5.5 15.057l-.05-.023V10.06c0-.146-.05-.17-.2-.17h-.69c-.14 0-.2.024-.2.17v7.96c0 .147.06.17.2.17h.69c.15 0 .2-.023.2-.17v-1.567l1.406-1.464 1.53 3.076c.04.078.113.124.25.124h.817c.137 0 .137-.08.1-.124L7.61 14.194l1.68-1.827c.05-.046.027-.137-.062-.137h-.965c-.138 0-.176.034-.227.09l-2.534 2.737zm7.818 2.407c-1.493 0-1.907-.977-1.907-2.19 0-1.204.554-2.283 1.896-2.283.54 0 1.004.114 1.405.284.15.08.19.023.24-.068l.26-.465c.065-.1.04-.18-.073-.237-.565-.284-1.18-.397-1.844-.397-1.844 0-2.975 1.225-2.975 3.167 0 2.008.992 3.04 2.838 3.04.69 0 1.48-.09 2.12-.407.112-.056.125-.136.062-.24l-.25-.475c-.05-.08-.1-.134-.252-.056a3.83 3.83 0 0 1-1.518.33zm8.37.17V14.08c0-1.28-.74-1.974-2.41-1.974-.69 0-1.58.09-2.22.328-.14.046-.15.115-.114.193l.15.49c.04.123.113.123.25.077.416-.124 1.155-.225 1.745-.225 1.255 0 1.493.474 1.493 1.19v.25h-1.53c-2.008 0-2.736.976-2.736 2.02 0 1 .54 1.884 2.698 1.884.802 0 1.73-.078 2.484-.385.124-.046.187-.15.187-.296zM20.57 15.26v2.02c-.527.184-1.28.217-1.568.217-.892 0-1.594-.238-1.594-1.067 0-1.09 1.105-1.17 1.707-1.17h1.455zm5.107 2.703l-.062-.443c-.014-.1-.063-.113-.177-.1a5.395 5.395 0 0 1-.45.02c-.34 0-.44-.1-.44-.544V10.06c0-.147-.05-.17-.2-.17h-.703c-.14 0-.2.023-.2.17v7.12c0 .77.3 1.133 1.153 1.133.262 0 .665-.01.954-.135.137-.058.137-.092.125-.216z"/></g></symbol><symbol id="icon-blue-2" viewBox="0 0 30 30"><g fill="none" fill-rule="evenodd"><path fill="#00B2EC" d="M15 0c8.286 0 15 6.716 15 15 0 8.284-6.714 15-15 15-8.285 0-15-6.716-15-15C0 6.716 6.716 0 15 0"/><path stroke="#FEFEFE" stroke-linecap="round" stroke-width="1.08" d="M1.957 11.067h26.716M2.243 21.873h26.146m-13.047-6.997v6.997m-4.528-4.53v4.53M6.288 19.45v2.424m13.582-4.53v4.53m4.53-2.424v2.424"/></g></symbol><symbol id="icon-blue-3" viewBox="0 0 30 30"><g fill="none" fill-rule="evenodd"><path fill="#00B2EC" d="M15 0c8.284 0 15 6.716 15 15 0 8.284-6.716 15-15 15-8.286 0-15-6.716-15-15C0 6.716 6.714 0 15 0"/><path stroke="#FEFEFE" stroke-width="1.08" d="M18.95 8.2a3.633 3.633 0 1 1-7.266 0 3.633 3.633 0 0 1 7.266 0zm-6.358 10.27a3.632 3.632 0 1 1-7.265 0 3.632 3.632 0 0 1 7.265 0z"/><path fill="#FEFEFE" d="M25.308 18.473a3.63 3.63 0 0 1-7.262 0 3.63 3.63 0 1 1 7.262 0"/><path stroke="#FEFEFE" stroke-width="1.08" d="M25.308 18.47a3.632 3.632 0 0 1-7.262 0 3.632 3.632 0 1 1 7.262 0z"/></g></symbol><symbol id="icon-check" viewBox="0 0 19 17"><title>Group 30 Copy</title><g fill="none" fill-rule="evenodd"><rect stroke="#EB1C24" x=".5" y="3.5" width="13" height="13" rx="2"/><path fill="#EB1C24" d="M17.2 0L6.6 10.6 2.4 6.4 1 7.8l5.6 5.6 12-12z"/></g></symbol><symbol id="icon-green-1" viewBox="0 0 30 30"><g fill="none" fill-rule="evenodd"><path fill="#39B54A" d="M15 0c8.285 0 15 6.716 15 15 0 8.284-6.715 15-15 15S0 23.284 0 15C0 6.716 6.716 0 15 0"/><path fill="#FEFEFE" d="M5.5 15.057l-.05-.023V10.06c0-.146-.05-.17-.2-.17h-.69c-.14 0-.2.024-.2.17v7.96c0 .147.06.17.2.17h.69c.15 0 .2-.023.2-.17v-1.567l1.406-1.464 1.53 3.076c.04.078.113.124.25.124h.817c.137 0 .137-.08.1-.124L7.61 14.194l1.68-1.827c.05-.046.027-.137-.062-.137h-.965c-.138 0-.176.034-.227.09l-2.534 2.737zm7.818 2.407c-1.493 0-1.907-.977-1.907-2.19 0-1.204.554-2.283 1.896-2.283.54 0 1.004.114 1.405.284.15.08.19.023.24-.068l.26-.465c.065-.1.04-.18-.073-.237-.565-.284-1.18-.397-1.844-.397-1.844 0-2.975 1.225-2.975 3.167 0 2.008.992 3.04 2.838 3.04.69 0 1.48-.09 2.12-.407.112-.056.125-.136.062-.24l-.25-.475c-.05-.08-.1-.134-.252-.056a3.83 3.83 0 0 1-1.518.33zm8.37.17V14.08c0-1.28-.74-1.974-2.41-1.974-.69 0-1.58.09-2.22.328-.14.046-.15.115-.114.193l.15.49c.04.123.113.123.25.077.416-.124 1.155-.225 1.745-.225 1.255 0 1.493.474 1.493 1.19v.25h-1.53c-2.008 0-2.736.976-2.736 2.02 0 1 .54 1.884 2.698 1.884.802 0 1.73-.078 2.484-.385.124-.046.187-.15.187-.296zM20.57 15.26v2.02c-.527.184-1.28.217-1.568.217-.892 0-1.594-.238-1.594-1.067 0-1.09 1.105-1.17 1.707-1.17h1.455zm5.107 2.703l-.062-.443c-.014-.1-.063-.113-.177-.1a5.395 5.395 0 0 1-.45.02c-.34 0-.44-.1-.44-.544V10.06c0-.147-.05-.17-.2-.17h-.703c-.14 0-.2.023-.2.17v7.12c0 .77.3 1.133 1.153 1.133.262 0 .665-.01.954-.135.137-.058.137-.092.125-.216z"/></g></symbol><symbol id="icon-green-2" viewBox="0 0 30 30"><g fill="none" fill-rule="evenodd"><path fill="#39B54A" d="M15 0c8.286 0 15 6.716 15 15 0 8.284-6.714 15-15 15-8.285 0-15-6.716-15-15C0 6.716 6.716 0 15 0"/><path stroke="#FEFEFE" stroke-linecap="round" stroke-width="1.08" d="M1.957 11.067h26.716M2.243 21.873h26.146m-13.047-6.997v6.997m-4.528-4.53v4.53M6.288 19.45v2.424m13.582-4.53v4.53m4.53-2.424v2.424"/></g></symbol><symbol id="icon-green-3" viewBox="0 0 30 30"><g fill="none" fill-rule="evenodd"><path fill="#39B54A" d="M15 0c8.284 0 15 6.716 15 15 0 8.284-6.716 15-15 15-8.286 0-15-6.716-15-15C0 6.716 6.714 0 15 0"/><path stroke="#FEFEFE" stroke-width="1.08" d="M18.95 8.2a3.633 3.633 0 1 1-7.266 0 3.633 3.633 0 0 1 7.266 0zm-6.358 10.27a3.632 3.632 0 1 1-7.265 0 3.632 3.632 0 0 1 7.265 0z"/><path fill="#FEFEFE" d="M25.308 18.473a3.63 3.63 0 0 1-7.262 0 3.63 3.63 0 1 1 7.262 0"/><path stroke="#FEFEFE" stroke-width="1.08" d="M25.308 18.47a3.632 3.632 0 0 1-7.262 0 3.632 3.632 0 1 1 7.262 0z"/></g></symbol><symbol id="icon-one-blue" viewBox="0 0 36 36"><g fill="none" fill-rule="evenodd"><g transform="translate(1)"><use fill="#000" filter="url(#a)" xlink:href="#b"/><use fill="#00B2EC" xlink:href="#b"/></g><path fill="#FFF" d="M28.672 21.58l-3.145-1.578 2.734-1.051c.38-.146.555-.537.389-.871-.164-.324-.623-.482-.996-.34l-3.756 1.445-4.38-2.199 4.36-2.203 3.798 1.448c.386.146.832-.02.991-.343.166-.334-.01-.724-.39-.868l-2.775-1.058 3.161-1.597a.669.669 0 0 0 .351-.402.584.584 0 0 0-.076-.5c-.2-.304-.682-.419-1.03-.243l-3.14 1.587.336-2.597a.601.601 0 0 0-.16-.488.778.778 0 0 0-.503-.244c-.423-.044-.793.224-.836.584l-.427 3.567-4.35 2.216v-4.4l3.293-2.153a.623.623 0 0 0 .286-.417.623.623 0 0 0-.146-.507c-.24-.285-.7-.35-1.03-.138L18.829 9.8V6.61c0-.389-.437-.66-.83-.66-.39 0-.826.271-.826.66v3.17l-2.367-1.55c-.324-.21-.796-.147-1.037.138a.632.632 0 0 0-.15.514c.029.166.13.311.28.408l3.274 2.135v4.418l-4.285-2.167-.457-3.57c-.045-.333-.362-.584-.738-.584a.785.785 0 0 0-.09.005c-.407.04-.703.368-.66.733l.349 2.597-3.214-1.613a.84.84 0 0 0-.374-.087.78.78 0 0 0-.654.332c-.205.313-.081.717.279.901l3.234 1.624-2.77 1.065a.702.702 0 0 0-.4.364.58.58 0 0 0 .013.505c.159.32.604.485.993.341l3.793-1.458 4.3 2.159-4.309 2.177-3.76-1.434c-.374-.141-.832.018-.993.342-.167.334.008.724.39.87l2.737 1.044-3.209 1.622c-.358.183-.48.588-.274.902.134.204.385.33.654.33a.824.824 0 0 0 .376-.089l3.23-1.632-.342 2.635a.602.602 0 0 0 .161.486.776.776 0 0 0 .592.247c.383 0 .705-.252.749-.588l.431-3.602 4.248-2.163v4.39l-2.917 2.135a.606.606 0 0 0-.081.926c.14.152.36.242.592.242a.756.756 0 0 0 .453-.151l1.953-1.434v3.145c0 .389.435.66.826.66.393 0 .83-.271.83-.66v-3.166l1.983 1.458a.8.8 0 0 0 1.03-.091.648.648 0 0 0 .189-.468.588.588 0 0 0-.254-.462l-2.948-2.157v-4.377l4.337 2.193.46 3.604c.045.332.363.582.74.582a.775.775 0 0 0 .584-.247.601.601 0 0 0 .16-.49l-.351-2.63 3.164 1.588a.835.835 0 0 0 .375.087.78.78 0 0 0 .654-.332c.205-.314.081-.719-.279-.901"/></g></symbol><symbol id="icon-one" viewBox="0 0 36 36"><g fill="none" fill-rule="evenodd"><g transform="translate(-403 -23)"><use fill="#000" filter="url(#a)" xlink:href="#b"/><use fill="#FFF" xlink:href="#b"/></g><g transform="translate(1)"><use fill="#000" filter="url(#c)" xlink:href="#d"/><use fill="#39B54A" xlink:href="#d"/></g><g transform="translate(7.8 4.25)"><mask id="f" fill="#fff"><use xlink:href="#e"/></mask><path fill="#FFF" d="M15.91 19.14a2.302 2.302 0 0 0-2.3-2.3 2.302 2.302 0 0 0-2.3 2.3 2.3 2.3 0 0 0 4.6 0zm.843 0a3.147 3.147 0 0 1-3.144 3.145 3.147 3.147 0 0 1-3.145-3.145 3.14 3.14 0 0 1 2.72-3.102v-2.923c0-.234.19-.42.424-.42a.42.42 0 0 1 .422.42v2.923a3.14 3.14 0 0 1 2.72 3.102zm1.278 0a4.41 4.41 0 0 0-2.386-3.923.844.844 0 0 1-.457-.75v-11.2a1.58 1.58 0 0 0-3.156 0v11.2a.845.845 0 0 1-.454.75 4.41 4.41 0 0 0-2.39 3.923 4.428 4.428 0 0 0 4.423 4.423 4.428 4.428 0 0 0 4.42-4.423zm1.69 0a6.118 6.118 0 0 1-6.11 6.11 6.117 6.117 0 0 1-6.112-6.11 6.088 6.088 0 0 1 2.843-5.162V3.268A3.27 3.27 0 0 1 13.61 0a3.27 3.27 0 0 1 3.267 3.267v10.71a6.09 6.09 0 0 1 2.846 5.163zM6.608 10.142l-.06 1.714a.423.423 0 0 1-.423.406h-.016a.422.422 0 0 1-.407-.438l.078-2.118-.965-1.35-.99 1.337.04 2.115a.423.423 0 0 1-.413.43h-.008a.422.422 0 0 1-.423-.413l-.034-1.714-1.65.465a.422.422 0 0 1-.23-.813l2.04-.575.987-1.332-1.57-.532L.56 8.01a.42.42 0 0 1-.537-.263.422.422 0 0 1 .263-.537l1.623-.556-.947-1.43a.423.423 0 0 1 .704-.466l1.168 1.766 1.56.528V5.405L3.1 3.73a.423.423 0 0 1 .67-.517L4.815 4.57l1.05-1.358a.422.422 0 1 1 .667.517L5.24 5.404V7.06l1.578-.503 1.2-1.745a.42.42 0 1 1 .696.478l-.972 1.414 1.613.583a.42.42 0 1 1-.285.793l-1.994-.72-1.578.504.965 1.353 2.03.61a.42.42 0 1 1-.244.808l-1.644-.493z" mask="url(#f)"/></g></g></symbol><symbol id="icon-p-1" viewBox="0 0 60 60"><g fill="none" fill-rule="evenodd"><g transform="translate(-165 -50)"><use fill="#000" filter="url(#a)" xlink:href="#b"/><use fill="#FFF" xlink:href="#b"/></g><circle cx="30" cy="30" r="30" fill="#39B54A"/><text fill="#FFF" font-family="TTRoundsCondensed-Bold" font-size="28" font-style="condensed" font-weight="bold"><tspan x="11" y="40">&#x2116;1</tspan></text></g></symbol><symbol id="icon-p-2" viewBox="0 0 60 60"><g fill="none" fill-rule="evenodd"><g transform="translate(-165 -50)"><use fill="#000" filter="url(#a)" xlink:href="#b"/><use fill="#FFF" xlink:href="#b"/></g><circle cx="30" cy="30" r="30" fill="#39B54A"/><path fill="#FFF" d="M30.075 27.13a3.521 3.521 0 1 1 0-7.042 3.521 3.521 0 0 1 0 7.043m0-13.131C24.519 14 20 18.407 20 23.962c0 1.232.263 2.575.736 3.784h-.008l.045.09.113.248 9.189 19.55 9.144-19.452.045-.09c.038-.083.083-.166.12-.256l.03-.082c.488-1.209.736-2.485.736-3.777 0-5.57-4.52-9.977-10.075-9.977"/></g></symbol><symbol id="icon-p-4" viewBox="0 0 60 60"><g fill="none" fill-rule="evenodd"><g transform="translate(-165 -50)"><use fill="#000" filter="url(#a)" xlink:href="#b"/><use fill="#FFF" xlink:href="#b"/></g><circle cx="30" cy="30" r="30" fill="#39B54A"/><g fill="#FFF"><path d="M16.193 21.46c1.229 2.857 3.302 5.683 6.204 6.901.332.138.708.242 1.094.328.773-1.152 1.66-2.087 2.699-2.853a13.558 13.558 0 0 1 2.791-1.574 7.876 7.876 0 0 0-.87-.528c-1.207-.631-2.515-1.187-3.788-1.784 1.197.325 2.57.445 3.716.863a8.64 8.64 0 0 1 1.988 1.056c1.832-.625 3.747-.925 5.658-1.153-1.549-2.574-4.854-4.64-7.346-5.576-2.601-.976-5.548-1.097-8.443-1.397-1.774-.183-3.703-.846-5.114-1.619-.32-.176-.663.118-.552.473.694 2.219 1.045 4.73 1.963 6.863"/><path d="M46.783 21.122c-3.265 1.774-7.009 1.991-10.676 2.412-1.791.207-3.565.462-5.252.973-.366.11-.732.235-1.09.373a12.85 12.85 0 0 0-3.065 1.656c-.91.67-1.656 1.463-2.284 2.336-1 1.394-1.698 2.999-2.27 4.665a26.605 26.605 0 0 0-1.432 9.44c.037 1.298.058 2.647.38 3.914.072.28.14.635.358.842.283.272.79-.007.676-.404-.821-2.798-.31-6.07.825-8.744 1.304-3.074 3.823-4.903 6.901-6.017a39.154 39.154 0 0 1 2.502-.801c.017-.007.034-.007.051-.007.17 0 .242.249.066.328-1 .452-1.994.907-2.94 1.4-4.63 2.416-6.653 8.04-4.917 8.04a1.3 1.3 0 0 0 .497-.117c2.678-1.107 5.859-1.118 8.802-1.663 1.036-.19 2.043-.448 2.989-.842 3.754-1.566 6.438-4.63 8.036-8.316 1.19-2.75 1.653-5.997 2.553-8.854.118-.365-.141-.68-.459-.68a.474.474 0 0 0-.251.066"/></g></g></symbol><symbol id="icon-p-5" viewBox="0 0 60 60"><g fill="none" fill-rule="evenodd"><g transform="translate(-165 -50)"><use fill="#000" filter="url(#a)" xlink:href="#b"/><use fill="#FFF" xlink:href="#b"/></g><circle cx="30" cy="30" r="30" fill="#39B54A"/><g fill="#FFF"><path d="M25.542 20.653s.325 2.086.438 2.858c.59 3.538 1.506 8.243-3.375 8.94-3.63.523-4.604-2.706-3.469-5.64.359-.914.793-1.798 1.298-2.64l.49.36c-.48.905-1.197 2.238-1.197 3.27 0 3.112 4.219 2.327 5.231 1.058 1.13-1.418-.27-6.772-.649-8.891l-.354-.325c-.253-.22.539-2.547.708-2.826 0 0 .477-.023.399.405-.114.624.824.974 1.298 1.243.068.357-.416 2.272-.53 2.272a.402.402 0 0 1-.217-.11c-.07-.072-.077 0-.09 0m6.827 4.77c2.132-2.392-4.614-7.96-5.283-6.967-.289.421.023 2.248.432 2.891.324.529 2.271 2.44 2.271.717a6.136 6.136 0 0 1 2.58 3.359"/><path d="M26.746 29.343v.58c3.832.286 5.841-.486 7.165-4.237.179 1.242.36 3.352 2.022 3.313 1.006-.026 9.482-.026 9.482-.026l-.026-2.525s-.928-.256-1.298-.649c-.37-.392-1.447-1.7-2.077-2.317-.63-.616-1.084-1.032-1.584-1.236-1.726-.708-2.479.811-3.105 2.06-.039.078.555-.116.993-.077 1.412.123 2.518 1.194 3.388 2.229-2.207 0-6.844 1.016-6.893-1.298-.042-1.99 0-4.621-.324-6.558-.052-.325-.386-1.597-.386-1.597s-.607 1.405-.773 1.778c-1.58 3.524 4.186 6.49-6.558 10.566"/><path d="M26.438 12.44a28.735 28.735 0 0 0-2.963 1.557C3.855 27.7 27.752 56.803 45.249 38.335a15.369 15.369 0 0 0 2.92-5.062c-1.622 7.35-7.768 13.629-15.436 14.327-12.597 1.161-22.245-9.586-19.568-21.85.352-1.29.8-2.551 1.34-3.774 2.545-5.016 6.562-8.07 11.933-9.537"/></g></g></symbol><symbol id="icon-p-6" viewBox="0 0 60 60"><g fill="none" fill-rule="evenodd"><g transform="translate(-165 -50)"><use fill="#000" filter="url(#a)" xlink:href="#b"/><use fill="#FFF" xlink:href="#b"/></g><circle cx="30" cy="30" r="30" fill="#39B54A"/><path fill="#FFF" d="M45.506 26.557l-2.964-4.212a.61.61 0 0 0-.498-.259H37.42a.61.61 0 0 0-.61.61v4.211c0 .337.274.61.61.61h7.588a.61.61 0 0 0 .498-.96m6.18 11.472v1.848a.61.61 0 0 1-.61.61h-4.931c-.353-2.42-2.435-4.285-4.95-4.285a5.012 5.012 0 0 0-4.95 4.284h-9.93a5 5 0 0 0-1.685-3.066h9.416V19.998c0-.673.545-1.218 1.218-1.218h5.75c1.62 0 3.133.804 4.039 2.146l3.707 5.49a4.88 4.88 0 0 1 .834 2.727v8.277h1.482a.61.61 0 0 1 .61.61m-8.596 3.18a1.895 1.895 0 1 0-3.79 0 1.895 1.895 0 0 0 3.79 0m1.895 0a3.79 3.79 0 1 1-7.58 0 3.79 3.79 0 0 1 7.58 0m-26.883-3.79H9.609a.61.61 0 0 0-.609.61v1.847a.61.61 0 0 0 .61.61h6.806a5 5 0 0 1 1.686-3.067m5.159 3.79a1.895 1.895 0 1 0-3.79 0 1.895 1.895 0 0 0 3.79 0m1.895 0a3.79 3.79 0 1 1-7.58 0 3.79 3.79 0 0 1 7.58 0m-14.658-6.222v-18.16c0-1.01.818-1.828 1.827-1.828h18.152c1.009 0 1.827.818 1.827 1.827V34.99a.61.61 0 0 1-.61.609H11.108a.61.61 0 0 1-.61-.61"/></g></symbol><symbol id="icon-yp" viewBox="0 0 34 34"><g fill="none" fill-rule="evenodd"><g transform="translate(-404 -125)"><use fill="#000" filter="url(#a)" xlink:href="#b"/><use fill="#FFF" xlink:href="#b"/></g><circle cx="17" cy="17" r="17" fill="#F1CEB3"/><g stroke="#FFF"><path d="M16.81 6.58l8.33 4.853v10.292l-8.33 4.854-8.31-4.855V11.433z"/><path d="M8.5 11.433l8.443 4.854 8.443-4.854m-8.443 4.855v10.29m-4.217-12.835L21.17 8.89"/></g></g></symbol><symbol id="line-copy" viewBox="0 0 179 134"><path fill="none" stroke="#EB1C24" stroke-linecap="square" d="M178.5 133.5c-19.436-39.91-43.936-70.91-73.5-93C75.436 18.41 40.602 5.076.5.5" opacity=".5"/></symbol><symbol id="lk" viewBox="0 0 30 30"><path fill="#39B54A" fill-rule="evenodd" d="M24.802 24.505l-2.673-1.337c-.743-.297-1.485-.594-2.228-1.04-.149-.148-.447-.148-.594-.296-.596-.297-.891-.891-.743-1.485v-.149c0-.743 0-1.337.446-1.93.444-.446.444-1.189.742-1.783 0-.148.149-.148.149-.297.149-.297.446-.445.594-.742.297-.595.444-1.337.297-1.931 0-.149 0-.149-.148-.297-.297-.446-.149-.743-.149-1.188.297-1.04.444-2.08.297-3.12 0-1.039-.297-2.078-1.04-2.82-.445-.446-1.04-.743-1.633-.892-.15 0-.15 0-.297-.148-.596-.595-1.338-.892-2.228-1.04-1.337-.149-2.673 0-4.01.594-1.336.594-2.079 1.634-2.376 2.97-.297 1.485-.149 2.822.148 4.159v.297c.149.445.149.742-.148 1.188-.446.89 0 2.376.742 2.97.149 0 .149.149.149.297.297.891.594 1.782 1.188 2.525 0 0 .149.148.149.297v1.782c0 .149-.149.446-.297.594l-1.337.891c-1.04.446-2.228.891-3.267 1.337-.446.148-.891.445-1.337.742-4.752-4.9-5.495-13.217-.297-18.86C10.248 0 19.307-.15 24.652 5.346c5.645 5.643 5.051 14.405.15 19.158m-2.525 1.93c-1.485.892-2.823 1.634-4.455 1.931-4.307.891-8.02-.148-11.436-2.821l-.148-.149c.445-.297.89-.446 1.336-.743.891-.445 1.931-.742 2.822-1.188.743-.297 1.485-.742 2.08-1.485.148-.297.445-.594.445-1.04v-2.524s0-.149-.149-.149c-.742-.594-1.04-1.485-1.188-2.376v-.297c0-.297-.148-.445-.445-.445-.149 0-.297-.149-.297-.149-.297-.297-.446-.743-.446-1.188 0-.149 0-.297.149-.446.148-.148.297-.297.148-.594l-.445-2.673c0-.891.148-1.782.297-2.525.445-1.04 1.188-1.782 2.227-2.079 1.04-.297 2.08-.445 3.268-.297.444.149.89.297 1.186.743 0 .148.15.148.299.148 1.485.149 2.079 1.188 2.227 2.525.149 1.336-.148 2.673-.445 4.01v.148c-.297.297-.149.446 0 .594.297.149.297.446.297.594 0 .297-.15.446-.15.743-.147.297-.296.446-.593.446a.318.318 0 0 0-.297.297c-.148.89-.297 1.633-.742 2.376a.32.32 0 0 1-.297.297c-.299.148-.299.445-.299.742v1.931c0 .891.447 1.485 1.041 1.93.743.595 1.485.892 2.377 1.189.89.445 1.78.742 2.673 1.188.148 0 .297.149.445.297-.445.297-.89.743-1.485 1.04M15 0C6.683 0 0 6.683 0 15s6.683 15 15 15 15-6.683 15-15S23.317 0 15 0"/></symbol><symbol id="logo" viewBox="0 0 105 53"><g fill="none" fill-rule="evenodd"><path fill="#FFF" d="M-44-18H980v90H-44z"/><g transform="translate(0 .133)"><mask id="b" fill="#fff"><use xlink:href="#a"/></mask><path fill="#EB1C24" d="M76.723 7.168l-44.801-.036c-12.895 0-17.381-3.458-18.964-5.866-.855-1.3-2.115-1.506-3.285-.597C6.1 3.444 0 9.58 0 20.005c0 17.931 13.945 25.362 28.198 25.362l44.801.036c12.895 0 17.381 3.457 18.964 5.866.855 1.3 2.116 1.506 3.286.597 3.572-2.776 9.672-8.91 9.672-19.336 0-17.932-13.944-25.362-28.198-25.362" mask="url(#b)"/></g><path fill="#FEFEFE" d="M25.548 32.033V20.567c0-.406.12-.727.362-.963.241-.236.566-.353.975-.353h6.204c.362 0 .658.113.89.339.231.225.347.515.347.869s-.116.644-.347.87c-.232.225-.528.338-.89.338h-4.866v3.42h3.812c.362 0 .659.113.89.339.232.226.347.515.347.869s-.115.644-.347.87c-.231.226-.528.339-.89.339h-3.812v3.419h5.067c.362 0 .659.113.89.339.231.226.347.515.347.869s-.116.644-.347.87c-.231.226-.528.339-.89.339h-6.405c-.409 0-.734-.118-.975-.354-.242-.236-.362-.553-.362-.953m-2.768-12.42c-.239-.236-.566-.354-.981-.354h-7.313c-.409 0-.734.118-.975.354-.242.235-.362.553-.362.953v11.526c0 .4.12.718.362.954.241.236.566.353.975.353.41 0 .735-.117.976-.353s.362-.554.362-.954V21.667h4.637v10.425c0 .4.119.718.357.954s.565.353.98.353c.416 0 .743-.117.981-.353s.357-.554.357-.954V20.566c0-.4-.119-.718-.357-.953m12.969 1.715c-.231-.225-.347-.515-.347-.87 0-.353.116-.643.347-.868.231-.227.528-.34.89-.34h7.826c.362 0 .658.113.89.34.23.225.347.515.347.869s-.116.644-.347.87c-.232.225-.528.338-.89.338h-2.575v10.427c0 .4-.12.717-.357.953-.238.236-.565.354-.981.354-.416 0-.743-.118-.98-.354-.239-.236-.358-.553-.358-.953V21.667h-2.575c-.362 0-.659-.113-.89-.339m13.784 5.174h1.85c.779 0 1.386-.213 1.821-.64.436-.425.655-1.018.655-1.778s-.219-1.352-.655-1.778c-.435-.425-1.042-.639-1.82-.639h-1.85v4.835zm-2.675 5.56V20.567c0-.406.12-.727.362-.963.241-.236.566-.353.976-.353h3.188c1.529 0 2.788.463 3.777 1.39.989.926 1.483 2.075 1.483 3.443 0 1.37-.494 2.516-1.483 3.44-.99.923-2.248 1.385-3.777 1.385h-1.85v3.153c0 .4-.121.717-.363.953-.241.236-.567.354-.975.354-.41 0-.735-.118-.976-.354-.242-.236-.362-.553-.362-.953zm21.963.069c0-.315.15-.717.453-1.208l3.148-4.824-2.847-4.432c-.301-.49-.452-.894-.452-1.208 0-.354.134-.66.402-.919a1.32 1.32 0 0 1 .945-.388c.282 0 .53.072.745.216.214.144.375.308.483.491l2.333 3.822h.08l2.324-3.822c.107-.183.27-.347.488-.49a1.32 1.32 0 0 1 .749-.217c.362 0 .676.13.94.388.265.26.398.565.398.919 0 .314-.151.717-.453 1.208L75.72 26.1l3.148 4.824c.302.49.453.893.453 1.208 0 .354-.133.66-.397.919a1.302 1.302 0 0 1-.941.388c-.282 0-.531-.07-.75-.211a1.48 1.48 0 0 1-.487-.487l-2.635-4.234h-.08l-2.636 4.234c-.107.184-.27.346-.488.487-.218.14-.468.21-.75.21a1.3 1.3 0 0 1-.94-.387 1.24 1.24 0 0 1-.397-.919m15.584-4.472h3.098l-1.488-5.139h-.121l-1.489 5.139zm-4.039 4.41c0-.209.07-.543.211-1.001l3.416-10.453c.14-.426.38-.768.72-1.027.338-.259.752-.388 1.241-.388.49 0 .902.13 1.237.388.336.259.574.601.715 1.027l3.52 10.485c.134.439.202.773.202 1.002 0 .354-.133.66-.398.919a1.3 1.3 0 0 1-.94.388c-.684 0-1.164-.436-1.439-1.307l-.634-1.928H83.69l-.539 1.896c-.275.871-.754 1.307-1.438 1.307a1.32 1.32 0 0 1-.946-.388 1.233 1.233 0 0 1-.402-.92zm12.579-11.472c0 .851-.565 1.419-1.416 1.419-.847 0-1.416-.568-1.416-1.419 0-.852.569-1.419 1.416-1.419.851 0 1.416.567 1.416 1.42zm-2.574 0c0 .698.464 1.167 1.158 1.167.698 0 1.162-.47 1.162-1.167 0-.698-.464-1.167-1.162-1.167-.694 0-1.158.47-1.158 1.167zm1.238-.718c.316 0 .493.162.493.426 0 .193-.125.316-.279.363-.031.011-.031.02-.003.035.104.063.16.138.201.24l.142.316c.016.032 0 .051-.033.051h-.19c-.024 0-.04-.011-.052-.035l-.096-.233c-.081-.177-.166-.264-.392-.264h-.13v.489c0 .028-.015.043-.044.043h-.177c-.028 0-.044-.015-.044-.043v-1.344c0-.028.016-.044.044-.044h.56zm-.338.666h.25c.202 0 .327-.074.327-.22 0-.138-.1-.197-.239-.197h-.338v.417zm-23.286-.133a1.214 1.214 0 0 0-.464-.855 1.271 1.271 0 0 0-.944-.295c-.355.03-.847.216-1.176.925l-2.625 5.8-2.818-5.803c-.328-.706-.82-.891-1.175-.922a1.27 1.27 0 0 0-.943.294 1.214 1.214 0 0 0-.465.856c-.029.316.055.674.249 1.063l3.718 7.482-.418.943c-.13.309-.29.535-.474.673-.149.112-.37.175-.636.185l-.638-.02c-.793.002-1.168.364-1.343.667-.175.305-.214.64-.11.97.317 1.018 1.745 1.018 2.214 1.018 1.094 0 1.915-.49 2.227-.778a4.865 4.865 0 0 0 1.154-1.65l4.42-9.49c.193-.39.276-.747.247-1.063"/></g></symbol><symbol id="page-1" viewBox="0 0 14 16"><g fill="none" fill-rule="evenodd"><mask id="b" fill="#fff"><use xlink:href="#a"/></mask><path fill="#B5B3B3" d="M9.795 1.13l.4-.536c.5-.67 1.43-.793 2.073-.268l1.166.953c.64.523.755 1.495.253 2.167l-.482.644a7.498 7.498 0 0 0-3.41-2.96zm-9 2.96l-.482-.644c-.501-.67-.39-1.643.253-2.167L1.732.326a1.435 1.435 0 0 1 2.072.268l.227.303.173.232A7.496 7.496 0 0 0 .794 4.09zM7 8.271V3.646h.735V8.27h.003v.776h-.003v.004H7v-.004H4.046V8.27H7zm3.17 6.117L11.718 16l.517-.538-1.428-1.487c1.716-1.257 2.839-3.34 2.839-5.697C13.646 4.44 10.67 1.33 7 1.33S.354 4.44.354 8.28c0 2.331 1.099 4.396 2.785 5.656l-1.465 1.527.516.538 1.581-1.646a6.395 6.395 0 0 0 6.398.034z" mask="url(#b)"/></g></symbol><symbol id="page-2" viewBox="0 0 16 16"><g fill="none" fill-rule="evenodd"><g transform="translate(.83 12.502)"><mask id="b" fill="#fff"><use xlink:href="#a"/></mask><path fill="#B5B3B3" d="M1.574.005C.594.357.005.805.005 1.29c0 1.138 3.207 2.061 7.163 2.061 3.956 0 7.163-.923 7.163-2.06 0-.488-.588-.935-1.57-1.287a8.305 8.305 0 0 1-1.072.8c.613.159 1.058.333 1.321.486-.71.414-2.739.982-5.842.982-3.103 0-5.131-.569-5.842-.982.263-.153.708-.327 1.32-.486a8.294 8.294 0 0 1-1.072-.8" mask="url(#b)"/></g><path fill="#B5B3B3" d="M0 6.651c0 2.291 1.046 4.347 2.702 5.754.355.301.737.574 1.143.812a8.208 8.208 0 0 0 4.152 1.115c1.52 0 2.942-.408 4.152-1.115a7.99 7.99 0 0 0 1.144-.812c1.656-1.407 2.702-3.463 2.702-5.754H0z"/><g transform="translate(3.214 .023)"><mask id="d" fill="#fff"><use xlink:href="#c"/></mask><path fill="#B5B3B3" d="M.848.141c-.751.54-1.04 1.263-.674 2.12.203.477 1.268 1.622.812 2.1-.61.64.381 1.596.994.953.607-.637.658-1.393.283-2.163-.183-.374-1.184-1.502-.706-1.845C2.273.791 1.574-.38.847.141" mask="url(#d)"/></g><g transform="translate(6.6 .023)"><mask id="f" fill="#fff"><use xlink:href="#e"/></mask><path fill="#B5B3B3" d="M.832.141c-.75.54-1.04 1.263-.674 2.12.203.477 1.268 1.622.813 2.1-.61.64.38 1.596.993.953.607-.637.659-1.393.283-2.163-.183-.374-1.184-1.502-.706-1.845C2.257.791 1.558-.38.83.141" mask="url(#f)"/></g><g transform="translate(9.952 .023)"><mask id="h" fill="#fff"><use xlink:href="#g"/></mask><path fill="#B5B3B3" d="M.85.141C.1.681-.188 1.404.178 2.261c.203.477 1.268 1.622.812 2.1-.61.64.381 1.596.994.953.607-.637.658-1.393.283-2.163-.183-.374-1.184-1.502-.706-1.845C2.276.791 1.577-.38.85.141" mask="url(#h)"/></g></g></symbol><symbol id="shape" viewBox="0 0 10 5"><path fill="#5E5E5E" d="M0 0l4.999 5L10 0z"/></symbol><symbol id="sw" viewBox="0 0 52 97"><g fill="none" fill-rule="evenodd"><g transform="translate(-395 -14)"><use fill="#000" filter="url(#a)" xlink:href="#b"/><use fill="#FFF" xlink:href="#b"/></g><g transform="rotate(90 20 48.5)"><use fill="#000" filter="url(#c)" xlink:href="#d"/><use fill="#FFF" xlink:href="#d"/></g><g transform="translate(9 54)"><circle cx="17" cy="17" r="17" fill="#EBEBEB"/><path fill="#FFF" d="M27.672 21.58l-3.145-1.578 2.734-1.05c.38-.147.556-.538.39-.872-.164-.324-.623-.482-.996-.34l-3.756 1.445-4.38-2.2 4.36-2.202 3.798 1.448c.386.147.832-.02.99-.342.167-.334-.01-.724-.39-.868l-2.774-1.058 3.16-1.597c.176-.088.3-.23.352-.402a.584.584 0 0 0-.076-.5c-.2-.304-.682-.42-1.03-.243l-3.14 1.587.336-2.597a.6.6 0 0 0-.16-.488.778.778 0 0 0-.503-.244c-.422-.044-.792.224-.835.584l-.427 3.567-4.35 2.215v-4.4l3.293-2.153a.623.623 0 0 0 .287-.417.623.623 0 0 0-.146-.507c-.24-.285-.7-.35-1.03-.138l-2.4 1.57V6.61c0-.39-.438-.66-.83-.66-.39 0-.827.27-.827.66v3.17L13.81 8.23c-.324-.21-.796-.147-1.037.138a.632.632 0 0 0-.15.514c.028.166.13.31.28.408l3.273 2.135v4.418l-4.285-2.167-.457-3.57c-.044-.333-.36-.584-.737-.584a.785.785 0 0 0-.09.005c-.407.04-.703.368-.66.733l.35 2.597-3.215-1.613a.84.84 0 0 0-.374-.087.78.78 0 0 0-.654.332c-.205.312-.08.716.28.9l3.233 1.624-2.77 1.065a.702.702 0 0 0-.4.363.58.58 0 0 0 .013.505c.16.32.604.485.993.34l3.792-1.457 4.3 2.16-4.31 2.177-3.76-1.434c-.373-.14-.83.018-.992.342-.167.334.008.724.39.87l2.737 1.044-3.21 1.62c-.357.184-.48.59-.273.903.134.204.385.33.654.33a.824.824 0 0 0 .376-.09l3.23-1.63-.342 2.634a.602.602 0 0 0 .16.486.776.776 0 0 0 .593.247c.383 0 .705-.252.75-.588l.43-3.602 4.248-2.163v4.39l-2.917 2.135a.606.606 0 0 0-.08.926c.14.152.36.242.59.242a.756.756 0 0 0 .454-.15l1.953-1.435v3.145c0 .39.435.66.826.66.392 0 .83-.27.83-.66v-3.166l1.982 1.458a.8.8 0 0 0 1.03-.09.648.648 0 0 0 .19-.47.588.588 0 0 0-.255-.46l-2.948-2.158v-4.377l4.336 2.193.46 3.604c.045.332.363.582.74.582a.775.775 0 0 0 .584-.247.6.6 0 0 0 .16-.49l-.35-2.63 3.163 1.587a.835.835 0 0 0 .375.087.78.78 0 0 0 .654-.332c.205-.314.08-.72-.28-.9"/></g><g transform="translate(9 9)"><use fill="#000" filter="url(#e)" xlink:href="#f"/><use fill="#39B54A" xlink:href="#f"/></g><g transform="translate(15.8 13.25)"><mask id="h" fill="#fff"><use xlink:href="#g"/></mask><path fill="#FFF" d="M15.91 19.14a2.302 2.302 0 0 0-2.3-2.3 2.302 2.302 0 0 0-2.3 2.3 2.3 2.3 0 0 0 4.6 0zm.843 0a3.147 3.147 0 0 1-3.144 3.145 3.147 3.147 0 0 1-3.145-3.145 3.14 3.14 0 0 1 2.72-3.102v-2.923c0-.234.19-.42.424-.42a.42.42 0 0 1 .422.42v2.923a3.14 3.14 0 0 1 2.72 3.102zm1.278 0a4.41 4.41 0 0 0-2.386-3.923.844.844 0 0 1-.457-.75v-11.2a1.58 1.58 0 0 0-3.156 0v11.2a.845.845 0 0 1-.454.75 4.41 4.41 0 0 0-2.39 3.923 4.428 4.428 0 0 0 4.423 4.423 4.428 4.428 0 0 0 4.42-4.423zm1.69 0a6.118 6.118 0 0 1-6.11 6.11 6.117 6.117 0 0 1-6.112-6.11 6.088 6.088 0 0 1 2.843-5.162V3.268A3.27 3.27 0 0 1 13.61 0a3.27 3.27 0 0 1 3.267 3.267v10.71a6.09 6.09 0 0 1 2.846 5.163zM6.608 10.142l-.06 1.714a.423.423 0 0 1-.423.406h-.016a.422.422 0 0 1-.407-.438l.078-2.118-.965-1.35-.99 1.337.04 2.115a.423.423 0 0 1-.413.43h-.008a.422.422 0 0 1-.423-.413l-.034-1.714-1.65.465a.422.422 0 0 1-.23-.813l2.04-.575.987-1.332-1.57-.532L.56 8.01a.42.42 0 0 1-.537-.263.422.422 0 0 1 .263-.537l1.623-.556-.947-1.43a.423.423 0 0 1 .704-.466l1.168 1.766 1.56.528V5.405L3.1 3.73a.423.423 0 0 1 .67-.517L4.815 4.57l1.05-1.358a.422.422 0 1 1 .667.517L5.24 5.404V7.06l1.578-.503 1.2-1.745a.42.42 0 1 1 .696.478l-.972 1.414 1.613.583a.42.42 0 1 1-.285.793l-1.994-.72-1.578.504.965 1.353 2.03.61a.42.42 0 1 1-.244.808l-1.644-.493z" mask="url(#h)"/></g></g></symbol></svg>